<?xml version="1.0" standalone="no"?>
<!DOCTYPE svg PUBLIC "-//W3C//DTD SVG 20010904//EN"
 "http://www.w3.org/TR/2001/REC-SVG-20010904/DTD/svg10.dtd">
<svg version="1.0" xmlns="http://www.w3.org/2000/svg"
 width="600.000000pt" height="586.000000pt" viewBox="0 0 600.000000 586.000000"
 preserveAspectRatio="xMidYMid meet">

<g transform="translate(0.000000,586.000000) scale(0.100000,-0.100000)"
fill="#000000" stroke="none">
<path d="M2810 5782 c0 -17 4 -33 9 -36 4 -3 11 -33 14 -67 10 -91 64 -128
105 -72 19 26 20 27 26 5 4 -12 19 -25 32 -28 40 -10 64 24 70 98 6 59 4 65
-21 88 -24 23 -35 25 -113 25 -48 1 -95 4 -104 9 -15 7 -18 3 -18 -22z m218
-87 c7 -14 12 -29 12 -33 0 -4 -40 -7 -90 -7 -53 0 -90 4 -90 10 0 21 16 30
54 32 21 1 44 7 49 12 20 20 53 12 65 -14z m-103 -75 c0 -18 -6 -26 -23 -28
-13 -2 -25 3 -28 12 -10 26 4 48 28 44 17 -2 23 -10 23 -28z m104 21 c21 -13
4 -53 -21 -49 -30 4 -48 36 -28 48 19 12 31 12 49 1z"/>
<path d="M3815 5711 c-23 -10 -53 -33 -68 -50 -30 -36 -34 -70 -15 -150 l11
-51 17 38 17 37 13 -27 c13 -27 40 -39 40 -18 0 6 -7 10 -15 10 -26 0 -16 18
13 23 26 4 26 4 5 12 -28 9 -29 17 -4 39 17 16 21 15 60 -10 22 -15 41 -32 41
-37 0 -5 9 -7 19 -4 33 8 61 -20 62 -61 l1 -37 16 37 c18 39 38 49 48 23 8
-19 -22 -65 -41 -65 -9 0 -29 -15 -45 -32 -24 -27 -29 -42 -30 -83 0 -27 -7
-90 -15 -140 -8 -49 -15 -93 -15 -97 0 -11 73 12 116 37 89 52 154 159 162
267 2 36 2 77 -1 90 -4 13 -35 46 -71 73 -47 37 -66 58 -70 81 -8 40 -39 80
-76 99 -40 20 -126 18 -175 -4z m125 -156 c7 -9 8 -15 2 -15 -5 0 -12 7 -16
15 -3 8 -4 15 -2 15 2 0 9 -7 16 -15z"/>
<path d="M2935 5540 c3 -5 12 -10 20 -10 8 0 17 5 20 10 4 6 -5 10 -20 10 -15
0 -24 -4 -20 -10z"/>
<path d="M3960 5490 c0 -5 5 -10 10 -10 6 0 10 5 10 10 0 6 -4 10 -10 10 -5 0
-10 -4 -10 -10z"/>
<path d="M2840 5455 c-36 -20 -74 -45 -85 -56 l-20 -20 34 -29 c34 -29 108
-60 143 -60 18 0 21 13 22 100 1 24 6 35 16 35 10 0 15 -11 16 -35 1 -92 3
-100 27 -100 31 1 96 31 135 65 31 26 32 28 16 47 -10 10 -47 34 -83 54 l-66
35 -22 -26 -23 -26 -22 25 -23 26 -65 -35z"/>
<path d="M3707 5433 c-4 -3 -4 -22 -1 -42 3 -20 1 -48 -5 -63 -7 -19 -6 -35 2
-57 11 -29 9 -33 -26 -62 -20 -17 -37 -36 -37 -43 0 -33 98 -89 176 -102 l41
-6 -13 88 c-8 49 -14 114 -14 144 -1 46 -6 61 -29 88 -16 19 -41 40 -56 48
-32 16 -30 16 -38 7z"/>
<path d="M3875 5380 c3 -5 12 -10 20 -10 8 0 17 5 20 10 4 6 -5 10 -20 10 -15
0 -24 -4 -20 -10z"/>
<path d="M1200 5203 c-25 -8 -48 -18 -53 -22 -4 -4 -1 -31 6 -60 13 -51 27
-59 27 -14 0 24 14 31 25 13 8 -13 85 -13 105 0 11 7 17 1 28 -23 10 -25 15
-29 22 -17 13 20 6 -35 -9 -73 -6 -16 -9 -32 -7 -36 11 -17 -30 -7 -42 11 -23
32 -92 14 -92 -25 0 -8 4 -7 12 1 7 7 27 12 45 12 26 0 34 -5 38 -23 4 -14 21
-28 50 -40 24 -10 55 -29 69 -42 l25 -23 23 36 c17 28 24 55 26 107 l2 70 -60
48 c-33 27 -60 56 -60 66 0 16 -8 20 -120 46 -8 2 -35 -3 -60 -12z m255 -322
c3 -5 2 -12 -3 -15 -5 -3 -9 1 -9 9 0 17 3 19 12 6z"/>
<path d="M4895 5101 c-47 -21 -92 -70 -101 -109 -3 -15 -8 -33 -10 -40 -7 -25
17 -107 42 -139 34 -45 46 -41 29 7 -19 54 -6 90 32 91 l28 1 -25 8 c-14 4
-19 8 -11 9 8 1 23 8 32 17 16 14 23 15 49 4 25 -10 36 -10 55 0 31 16 42 8
56 -42 9 -37 8 -48 -13 -92 -12 -28 -32 -59 -43 -68 -18 -15 -19 -18 -4 -33
22 -22 5 -73 -26 -77 -11 -2 -20 -9 -19 -15 1 -7 2 -31 3 -54 1 -40 1 -41 34
-34 81 17 187 91 170 118 -3 6 -1 7 6 3 16 -10 59 87 62 139 6 94 3 101 -55
137 -43 26 -56 40 -61 65 -3 18 -18 47 -32 64 -50 59 -124 74 -198 40z"/>
<path d="M1200 5086 c0 -2 7 -6 15 -10 8 -3 15 -1 15 4 0 6 -7 10 -15 10 -8 0
-15 -2 -15 -4z"/>
<path d="M1296 5081 c-4 -5 3 -7 14 -4 23 6 26 13 6 13 -8 0 -17 -4 -20 -9z"/>
<path d="M3045 4920 c3 -5 8 -10 11 -10 2 0 4 5 4 10 0 6 -5 10 -11 10 -5 0
-7 -4 -4 -10z"/>
<path d="M4998 4913 c6 -2 18 -2 25 0 6 3 1 5 -13 5 -14 0 -19 -2 -12 -5z"/>
<path d="M4880 4880 c0 -5 5 -10 10 -10 6 0 10 5 10 10 0 6 -4 10 -10 10 -5 0
-10 -4 -10 -10z"/>
<path d="M5010 4880 c0 -5 5 -10 10 -10 6 0 10 5 10 10 0 6 -4 10 -10 10 -5 0
-10 -4 -10 -10z"/>
<path d="M1250 4850 c0 -5 5 -10 10 -10 6 0 10 5 10 10 0 6 -4 10 -10 10 -5 0
-10 -4 -10 -10z"/>
<path d="M1250 4810 c0 -5 5 -10 10 -10 6 0 10 5 10 10 0 6 -4 10 -10 10 -5 0
-10 -4 -10 -10z"/>
<path d="M4948 4783 c6 -2 18 -2 25 0 6 3 1 5 -13 5 -14 0 -19 -2 -12 -5z"/>
<path d="M1250 4770 c0 -5 5 -10 10 -10 6 0 10 5 10 10 0 6 -4 10 -10 10 -5 0
-10 -4 -10 -10z"/>
<path d="M1426 4724 c-5 -14 -4 -15 9 -4 17 14 19 20 6 20 -5 0 -12 -7 -15
-16z"/>
<path d="M4835 4682 c-37 -13 -54 -25 -64 -46 -13 -28 -12 -31 13 -52 24 -21
111 -54 142 -54 7 0 15 21 19 50 8 55 1 77 -20 60 -10 -8 -16 -3 -26 24 l-14
34 -50 -16z"/>
<path d="M2395 4671 c-75 -45 -115 -132 -115 -251 0 -81 14 -127 43 -136 11
-4 28 -16 38 -27 14 -19 20 -20 43 -9 14 6 26 16 26 22 0 17 -62 90 -76 90
-18 0 -47 46 -41 64 4 9 14 12 25 9 11 -2 23 0 26 6 4 6 22 11 41 11 27 0 32
3 28 19 -3 13 2 20 17 24 17 4 20 2 15 -14 -4 -10 -4 -19 0 -19 16 0 65 32 83
55 24 30 32 32 32 7 0 -18 63 -82 81 -82 14 0 10 -43 -5 -62 -7 -10 -19 -18
-27 -18 -15 0 -79 -72 -79 -89 0 -16 39 -33 60 -26 11 4 20 11 20 16 0 5 11
14 25 19 36 14 47 53 43 155 -6 171 -75 255 -209 255 -45 0 -73 -6 -94 -19z
m15 -201 c0 -5 -5 -10 -11 -10 -5 0 -7 5 -4 10 3 6 8 10 11 10 2 0 4 -4 4 -10z"/>
<path d="M2533 4453 c9 -2 25 -2 35 0 9 3 1 5 -18 5 -19 0 -27 -2 -17 -5z"/>
<path d="M2395 4421 c-6 -11 9 -23 19 -14 9 9 7 23 -3 23 -6 0 -12 -4 -16 -9z"/>
<path d="M2550 4421 c0 -6 5 -13 10 -16 6 -3 10 1 10 9 0 9 -4 16 -10 16 -5 0
-10 -4 -10 -9z"/>
<path d="M686 4348 c5 -7 2 -9 -7 -6 -9 3 -26 -3 -40 -13 -13 -10 -18 -19 -11
-19 7 0 10 -5 7 -10 -4 -6 -11 -7 -17 -4 -7 4 -8 2 -4 -4 4 -7 2 -12 -3 -12
-21 0 -11 -40 12 -51 48 -22 175 39 160 76 -3 10 1 15 13 15 16 0 17 -2 4 -10
-13 -9 -8 -14 11 -12 4 1 5 -7 2 -16 -2 -10 5 -26 16 -36 25 -23 28 -83 6
-126 -14 -26 -13 -30 3 -40 16 -10 15 -10 -3 -8 -11 1 -30 -3 -42 -10 -19 -11
-21 -16 -11 -32 9 -14 9 -25 -1 -46 l-12 -27 -16 22 -15 22 -22 -20 -22 -21
-15 34 c-16 35 -14 70 2 45 6 -10 9 -11 9 -2 0 7 -16 27 -36 46 -20 18 -39 47
-44 67 -8 34 -8 34 -9 -13 -1 -34 2 -46 11 -41 7 5 8 3 2 -7 -13 -22 -13 -37
1 -49 10 -8 17 -6 28 10 9 13 17 17 22 11 3 -6 1 -11 -5 -11 -6 0 -8 -4 -5
-10 3 -5 0 -10 -7 -10 -9 0 -9 -3 2 -10 12 -7 8 -11 -18 -16 -32 -7 -62 -36
-62 -62 0 -23 100 -62 160 -62 51 0 124 24 157 51 20 17 -10 66 -46 74 -16 3
-32 12 -35 20 -3 9 0 12 10 8 10 -4 12 0 8 11 -5 12 -2 15 10 10 19 -7 18 -13
21 109 3 103 -2 140 -16 131 -5 -3 -7 1 -4 8 12 32 -106 77 -118 46 -4 -10 -6
-10 -6 0 -1 6 -8 12 -17 12 -9 0 -12 -5 -8 -12z m74 -30 c-14 -11 -24 -24 -23
-29 2 -5 -4 -6 -13 -2 -11 4 -7 11 18 29 41 29 51 30 18 2z m-4 -46 c-17 -16
-18 -16 -5 5 7 12 15 20 18 17 3 -2 -3 -12 -13 -22z m-26 -7 c0 -2 -9 -9 -19
-15 -14 -7 -22 -7 -27 2 -4 6 -3 8 2 5 6 -3 16 -2 24 4 17 10 20 11 20 4z
m120 -5 c0 -5 -4 -10 -10 -10 -5 0 -10 5 -10 10 0 6 5 10 10 10 6 0 10 -4 10
-10z m-187 -10 c3 6 4 5 3 -2 -2 -7 -9 -13 -17 -14 -21 -1 -30 6 -23 17 4 6
11 6 19 -1 9 -8 15 -8 18 0z"/>
<path d="M2465 4310 c3 -5 15 -10 26 -10 10 0 19 5 19 10 0 6 -12 10 -26 10
-14 0 -23 -4 -19 -10z"/>
<path d="M4083 4214 c-33 -20 -44 -33 -49 -61 -9 -45 2 -163 16 -177 8 -8 9 1
5 29 -8 50 9 119 36 146 18 18 22 18 49 4 38 -19 65 -19 101 2 28 16 29 16 53
-6 33 -31 50 -83 43 -132 -3 -22 -2 -39 3 -39 18 0 26 134 11 190 -18 67 -185
94 -268 44z"/>
<path d="M675 4200 c3 -5 8 -10 11 -10 2 0 4 5 4 10 0 6 -5 10 -11 10 -5 0 -7
-4 -4 -10z"/>
<path d="M760 4200 c0 -5 7 -7 15 -4 8 4 15 8 15 10 0 2 -7 4 -15 4 -8 0 -15
-4 -15 -10z"/>
<path d="M660 4170 c0 -5 5 -10 10 -10 6 0 10 5 10 10 0 6 -4 10 -10 10 -5 0
-10 -4 -10 -10z"/>
<path d="M780 4169 c0 -5 5 -7 10 -4 6 3 10 8 10 11 0 2 -4 4 -10 4 -5 0 -10
-5 -10 -11z"/>
<path d="M2314 4169 c-16 -5 -41 -20 -54 -34 -23 -25 -23 -25 -4 -40 28 -23
97 -58 90 -47 -3 5 6 18 21 27 l26 18 -29 15 c-16 8 -30 16 -32 17 -2 2 4 15
13 29 19 28 16 29 -31 15z"/>
<path d="M2635 4156 c20 -30 20 -28 -18 -48 l-29 -15 25 -16 c24 -16 27 -15
66 13 23 17 41 34 41 39 0 15 -35 39 -68 46 l-34 7 17 -26z"/>
<path d="M720 4090 c0 -5 7 -10 15 -10 8 0 15 5 15 10 0 6 -7 10 -15 10 -8 0
-15 -4 -15 -10z"/>
<path d="M4085 4070 c-4 -6 8 -10 30 -10 22 0 34 4 30 10 -3 6 -17 10 -30 10
-13 0 -27 -4 -30 -10z"/>
<path d="M4245 4070 c-7 -11 9 -11 45 0 24 8 24 8 -7 9 -17 1 -35 -3 -38 -9z"/>
<path d="M4105 4030 c-3 -5 1 -10 9 -10 9 0 16 5 16 10 0 6 -4 10 -9 10 -6 0
-13 -4 -16 -10z"/>
<path d="M4260 4030 c0 -5 5 -10 10 -10 6 0 10 5 10 10 0 6 -4 10 -10 10 -5 0
-10 -4 -10 -10z"/>
<path d="M4150 3935 c-17 -18 -27 -22 -35 -15 -18 15 -28 -34 -15 -74 11 -34
54 -66 90 -66 12 0 37 7 55 16 37 17 52 50 47 102 -3 27 -6 31 -17 22 -10 -8
-19 -5 -39 15 -32 32 -56 32 -86 0z m25 -25 c-18 -7 -19 -8 -2 -15 9 -4 26 -5
37 -2 25 6 26 1 2 -12 -14 -7 -25 -6 -41 5 -23 17 -20 34 7 33 14 0 13 -2 -3
-9z"/>
<path d="M5634 3772 c-11 -11 -29 -23 -42 -27 -12 -3 -29 -17 -38 -30 -14 -21
-13 -27 1 -62 l17 -38 17 54 c19 63 32 72 51 35 26 -48 116 -106 130 -83 6 8
13 8 28 0 18 -9 23 -8 32 8 15 29 12 77 -6 96 -25 24 -88 54 -132 61 -31 5
-43 2 -58 -14z"/>
<path d="M3991 3733 c-74 -42 -111 -79 -111 -110 0 -14 93 -72 148 -93 29 -11
52 -18 52 -15 0 3 -9 23 -20 45 -25 50 -25 52 7 72 l26 16 -31 16 c-18 9 -32
20 -32 24 0 4 12 25 26 45 14 21 24 40 22 42 -2 3 -41 -17 -87 -42z"/>
<path d="M4310 3776 c0 -4 11 -24 25 -46 14 -22 25 -42 25 -45 0 -2 -14 -12
-32 -21 l-32 -16 27 -20 27 -19 -20 -40 c-11 -21 -18 -39 -15 -39 16 0 109 54
140 81 41 36 43 48 13 76 -26 24 -158 98 -158 89z"/>
<path d="M1395 3745 c-22 -8 -57 -32 -77 -54 -35 -36 -38 -45 -38 -96 0 -40 4
-55 14 -55 9 0 16 17 20 49 9 67 23 77 89 62 39 -9 61 -9 85 0 64 22 89 2 95
-78 1 -17 4 -29 6 -27 2 2 10 -1 18 -7 11 -9 13 -2 13 40 0 85 -43 142 -124
166 -59 18 -51 18 -101 0z"/>
<path d="M4163 3688 l-32 -33 9 -70 c5 -38 9 -73 10 -77 0 -9 36 -10 67 -2 19
5 22 15 29 81 6 74 6 76 -23 104 l-29 29 -31 -32z"/>
<path d="M5605 3630 c-4 -6 7 -10 25 -10 18 0 29 4 25 10 -3 6 -15 10 -25 10
-10 0 -22 -4 -25 -10z"/>
<path d="M1336 3582 c-3 -4 11 -9 30 -9 19 -1 34 3 34 8 0 11 -57 12 -64 1z"/>
<path d="M1495 3580 c-7 -11 9 -11 45 0 24 8 24 8 -7 9 -17 1 -35 -3 -38 -9z"/>
<path d="M1360 3540 c0 -5 5 -10 10 -10 6 0 10 5 10 10 0 6 -4 10 -10 10 -5 0
-10 -4 -10 -10z"/>
<path d="M1515 3540 c3 -5 10 -10 16 -10 5 0 9 5 9 10 0 6 -7 10 -16 10 -8 0
-12 -4 -9 -10z"/>
<path d="M5665 3500 c3 -5 15 -10 25 -10 10 0 22 5 25 10 4 6 -7 10 -25 10
-18 0 -29 -4 -25 -10z"/>
<path d="M5567 3401 c-80 -42 -117 -73 -117 -95 0 -32 126 -96 187 -96 24 0
33 26 37 111 1 29 7 44 15 44 10 0 15 -20 17 -69 2 -38 8 -74 13 -79 21 -21
180 60 195 99 7 19 -19 41 -105 86 l-70 38 -25 -30 -25 -29 -27 28 -27 29 -68
-37z"/>
<path d="M1420 3415 c7 -8 20 -15 30 -15 10 0 23 7 30 15 11 13 7 15 -30 15
-37 0 -41 -2 -30 -15z"/>
<path d="M1285 3270 c-79 -40 -145 -96 -145 -124 0 -33 96 -93 193 -121 113
-33 277 12 377 103 l45 41 -30 29 c-16 17 -66 49 -110 71 -87 44 -94 43 -96
-19 0 -19 -4 -43 -8 -54 -6 -17 -10 -15 -35 14 l-27 33 -28 -27 c-35 -34 -41
-33 -42 7 -1 17 -4 44 -8 60 l-6 27 -80 -40z"/>
<path d="M3052 3294 c-16 -11 -34 -14 -57 -10 -156 30 -301 -168 -246 -336 11
-35 61 -92 61 -70 0 6 -4 14 -10 17 -15 9 -12 47 3 43 19 -7 38 -77 40 -150 1
-36 5 -61 9 -55 12 19 9 117 -5 177 -21 87 -3 126 82 188 54 39 61 40 61 3 0
-37 31 -75 88 -108 67 -38 83 -54 76 -75 -3 -12 1 -20 12 -25 10 -4 19 -2 22
5 2 7 8 12 13 12 13 0 11 -75 -2 -120 -15 -49 -5 -88 26 -102 21 -9 28 -8 45
7 25 23 25 31 -1 38 -28 8 -18 39 33 96 47 54 52 74 45 158 -15 154 -66 251
-158 297 -60 30 -104 33 -137 10z"/>
<path d="M2885 2980 c-14 -6 -4 -9 38 -9 36 -1 56 3 52 9 -7 12 -62 12 -90 0z"/>
<path d="M2907 2933 c-13 -12 -7 -43 7 -43 19 0 28 14 20 34 -7 17 -16 20 -27
9z"/>
<path d="M3013 2738 c2 -8 20 -13 42 -13 22 0 40 5 43 13 2 8 -10 12 -43 12
-33 0 -45 -4 -42 -12z"/>
<path d="M230 2655 c-14 -8 -33 -14 -42 -15 -21 0 -21 -7 -5 -78 12 -52 27
-61 27 -17 0 31 10 36 34 20 27 -19 69 -19 107 0 29 16 29 16 35 -15 6 -28 20
-47 29 -38 2 2 6 30 10 63 l7 60 -55 18 c-65 21 -113 21 -147 2z"/>
<path d="M4264 2553 c-34 -7 -100 -69 -123 -116 -16 -33 -21 -63 -21 -121 0
-87 11 -116 43 -117 13 0 37 -18 60 -45 35 -42 37 -50 37 -112 0 -37 7 -107
15 -157 8 -49 15 -93 15 -97 0 -5 17 -8 39 -8 l39 0 15 108 c9 59 19 134 23
167 6 48 14 69 42 103 19 23 43 42 54 42 24 0 50 57 37 82 -5 9 -9 34 -9 55 0
58 -16 104 -52 147 -51 62 -126 86 -214 69z m-6 -275 c15 -15 -3 -38 -29 -38
-24 0 -33 18 -19 35 15 18 32 19 48 3z m182 -3 c16 -19 5 -35 -25 -35 -26 0
-39 22 -22 39 15 15 32 14 47 -4z m-100 -85 c0 -5 -4 -10 -10 -10 -5 0 -10 5
-10 10 0 6 5 10 10 10 6 0 10 -4 10 -10z"/>
<path d="M4220 2266 c0 -9 7 -16 16 -16 17 0 14 22 -4 28 -7 2 -12 -3 -12 -12z"/>
<path d="M4407 2273 c-12 -11 -8 -23 8 -23 8 0 15 7 15 15 0 16 -12 20 -23 8z"/>
<path d="M2830 2526 c-41 -12 -74 -26 -73 -31 2 -6 12 -35 23 -65 10 -30 19
-69 20 -87 0 -29 4 -33 57 -53 114 -43 213 -50 323 -25 109 25 120 32 120 74
1 31 19 95 44 152 6 13 -7 20 -76 37 -46 12 -86 18 -89 14 -4 -4 -14 -31 -24
-61 l-18 -54 -45 47 -45 48 -41 -48 -42 -47 -23 61 c-12 34 -25 62 -29 61 -4
0 -41 -10 -82 -23z"/>
<path d="M245 2520 c3 -5 11 -10 16 -10 6 0 7 5 4 10 -3 6 -11 10 -16 10 -6 0
-7 -4 -4 -10z"/>
<path d="M335 2520 c-7 -12 2 -12 30 0 19 8 19 9 -2 9 -12 1 -25 -3 -28 -9z"/>
<path d="M5534 2480 c-80 -66 -93 -94 -68 -158 l18 -47 11 39 c15 54 49 79 95
72 19 -4 64 -10 98 -15 70 -9 93 -25 95 -64 3 -34 13 -25 20 17 9 56 -9 105
-49 128 -19 11 -34 26 -34 34 0 19 -52 44 -92 44 -25 0 -48 -12 -94 -50z"/>
<path d="M240 2489 c0 -5 5 -7 10 -4 6 3 10 8 10 11 0 2 -4 4 -10 4 -5 0 -10
-5 -10 -11z"/>
<path d="M200 2452 c0 -34 15 -57 54 -81 42 -26 60 -26 98 0 29 21 65 85 54
96 -3 3 -12 -11 -20 -32 l-16 -37 -26 21 c-34 27 -58 27 -85 0 -24 -24 -23
-24 -43 21 -13 29 -15 31 -16 12z m121 -57 c15 5 20 3 17 -6 -5 -15 -41 -24
-64 -15 -8 3 -11 12 -8 21 5 12 10 13 20 4 7 -6 23 -8 35 -4z"/>
<path d="M1375 2329 c-46 -11 -82 -41 -101 -86 -18 -43 -18 -89 1 -97 8 -3 15
-1 15 4 0 6 11 10 25 10 23 0 25 3 19 28 -5 22 -4 25 7 15 19 -19 31 -16 25 5
-6 18 -3 18 68 3 49 -11 84 -25 103 -41 43 -39 61 -30 53 26 -16 103 -104 158
-215 133z"/>
<path d="M5553 2283 c9 -2 25 -2 35 0 9 3 1 5 -18 5 -19 0 -27 -2 -17 -5z"/>
<path d="M5693 2283 c9 -2 23 -2 30 0 6 3 -1 5 -18 5 -16 0 -22 -2 -12 -5z"/>
<path d="M290 2233 c0 -26 -3 -58 -6 -70 -5 -18 -2 -23 14 -23 19 0 21 5 17
67 -5 79 -25 100 -25 26z"/>
<path d="M5550 2245 c0 -8 5 -15 10 -15 6 0 10 7 10 15 0 8 -4 15 -10 15 -5 0
-10 -7 -10 -15z"/>
<path d="M5702 2251 c2 -7 7 -12 11 -12 12 1 9 15 -3 20 -7 2 -11 -2 -8 -8z"/>
<path d="M5738 2132 c-22 -25 -23 -30 -12 -62 14 -43 11 -47 -21 -30 -21 11
-27 11 -43 -3 -23 -21 -31 -21 -52 -2 -15 14 -20 14 -46 1 -16 -9 -49 -21 -74
-28 -52 -15 -83 -56 -64 -85 15 -23 91 -61 141 -69 36 -5 41 -4 46 17 10 36 8
84 -3 95 -7 7 -4 16 10 29 20 18 21 18 34 -1 10 -12 11 -23 5 -31 -6 -6 -7
-33 -3 -63 l7 -52 35 6 c46 7 142 54 149 73 9 24 -24 137 -55 186 l-29 46 -25
-27z"/>
<path d="M5620 2140 c0 -5 9 -10 19 -10 11 0 23 5 26 10 4 6 -5 10 -19 10 -14
0 -26 -4 -26 -10z"/>
<path d="M1353 2133 c9 -2 23 -2 30 0 6 3 -1 5 -18 5 -16 0 -22 -2 -12 -5z"/>
<path d="M1473 2133 c9 -2 23 -2 30 0 6 3 -1 5 -18 5 -16 0 -22 -2 -12 -5z"/>
<path d="M1340 2100 c0 -5 5 -10 10 -10 6 0 10 5 10 10 0 6 -4 10 -10 10 -5 0
-10 -4 -10 -10z"/>
<path d="M1480 2100 c0 -5 5 -10 10 -10 6 0 10 5 10 10 0 6 -4 10 -10 10 -5 0
-10 -4 -10 -10z"/>
<path d="M1574 2072 c-5 -4 -20 -24 -33 -44 -12 -21 -37 -49 -54 -62 -31 -24
-31 -25 -13 -45 16 -17 72 -41 98 -41 7 0 23 188 16 195 -2 2 -8 1 -14 -3z"/>
<path d="M1265 1983 c4 -49 9 -91 12 -96 6 -9 52 2 81 19 31 20 28 40 -12 74
-18 17 -39 43 -46 60 -7 16 -19 30 -27 30 -12 0 -14 -14 -8 -87z"/>
<path d="M1410 2000 c0 -5 6 -10 14 -10 8 0 18 5 21 10 3 6 -3 10 -14 10 -12
0 -21 -4 -21 -10z"/>
<path d="M4092 1966 l-83 -21 34 -40 c19 -22 52 -49 73 -61 l39 -21 29 28 30
28 -37 16 c-20 8 -37 18 -37 21 0 3 9 19 21 36 12 16 20 30 18 32 -2 2 -41 -7
-87 -18z"/>
<path d="M4499 1954 c12 -20 21 -38 19 -39 -2 -1 -18 -10 -37 -20 l-34 -17 28
-22 c18 -14 25 -27 21 -35 -16 -26 76 32 122 76 l47 46 -70 18 c-38 10 -81 21
-94 24 l-24 6 22 -37z"/>
<path d="M2880 1956 c0 -3 9 -10 20 -16 11 -6 20 -8 20 -6 0 3 -9 10 -20 16
-11 6 -20 8 -20 6z"/>
<path d="M2580 1673 c-41 -16 -51 -36 -49 -96 2 -46 6 -61 19 -64 9 -2 21 -18
27 -34 13 -34 52 -40 74 -11 11 14 11 15 -1 5 -22 -20 -58 -16 -65 7 -3 11 -3
24 0 30 10 16 65 12 71 -5 4 -8 10 -13 14 -10 4 3 15 -7 25 -21 23 -35 65 -30
85 11 22 46 26 5 4 -50 -14 -39 -34 -60 -34 -37 0 10 -62 37 -80 34 -56 -11
-96 -52 -50 -52 11 0 20 7 20 15 0 12 5 13 18 7 9 -5 22 -7 29 -5 7 2 21 -4
32 -14 29 -27 19 -86 -17 -102 -31 -15 -78 1 -85 29 -5 18 -8 18 -58 -8 -75
-39 -106 -61 -113 -79 -15 -37 83 -96 181 -109 39 -5 69 -1 122 15 83 25 99
41 42 41 -34 0 -41 3 -41 20 0 17 7 20 45 20 40 0 45 -3 45 -22 1 -21 4 -20
36 15 19 21 32 43 28 49 -4 6 -3 8 3 5 6 -4 14 0 17 9 9 22 8 26 -6 18 -7 -4
-8 -3 -4 5 4 6 11 9 16 6 10 -6 40 85 40 121 0 61 -12 79 -81 124 -49 32 -69
51 -69 66 0 12 -9 32 -19 45 -17 22 -28 24 -113 26 -51 1 -100 0 -108 -4z
m184 -62 c9 -8 16 -28 16 -47 0 -32 -2 -33 -29 -28 -16 3 -37 1 -48 -5 -14 -7
-31 -7 -57 1 -29 9 -42 9 -56 0 -11 -6 -21 -8 -24 -4 -7 12 11 84 23 91 20 13
158 6 175 -8z m4 -118 c-3 -24 -8 -28 -33 -28 -25 0 -30 4 -33 28 -3 25 -1 27
33 27 34 0 36 -2 33 -27z"/>
<path d="M2725 1500 c3 -5 8 -10 11 -10 2 0 4 5 4 10 0 6 -5 10 -11 10 -5 0
-7 -4 -4 -10z"/>
<path d="M1205 1221 c-73 -18 -105 -60 -105 -138 0 -48 40 -133 62 -133 6 0 4
8 -5 18 -16 17 -15 20 7 41 17 16 31 21 45 16 27 -8 27 -40 -1 -59 -18 -13
-19 -16 -5 -16 9 0 24 14 33 31 l16 31 19 -31 c10 -17 23 -31 29 -31 5 0 1 9
-10 20 -11 11 -20 26 -20 34 0 15 51 29 75 20 20 -8 19 -38 -1 -58 -8 -9 -11
-16 -5 -16 15 0 59 98 66 146 8 54 -11 85 -65 105 -62 23 -100 28 -135 20z
m139 -103 c7 -18 16 -44 19 -58 6 -24 5 -25 -52 -26 l-57 0 33 49 c18 27 33
53 33 58 0 19 12 8 24 -23z m-108 -85 c-13 -14 -25 9 -13 28 12 20 12 20 15
-1 2 -12 1 -24 -2 -27z"/>
<path d="M4817 1207 c-6 -17 3 -66 14 -73 5 -3 9 -24 9 -47 0 -50 9 -87 21
-87 4 0 7 8 7 18 -1 9 2 29 5 45 6 22 13 27 38 27 16 0 46 7 66 15 19 8 41 15
47 15 16 0 36 -48 36 -87 0 -35 15 -45 23 -15 4 14 5 14 6 1 0 -9 -12 -43 -29
-75 -28 -55 -30 -57 -30 -28 0 36 -13 44 -70 44 -46 0 -64 -18 -51 -51 9 -23
10 -23 10 -2 1 25 16 39 26 23 8 -13 45 -13 45 0 0 6 4 10 9 10 15 0 24 -90
10 -106 -22 -27 -99 -11 -99 21 0 19 -110 -35 -147 -71 l-25 -25 22 -24 c52
-56 205 -87 280 -56 19 7 20 10 7 10 -10 1 -16 5 -13 10 4 5 20 7 37 4 27 -4
37 2 78 44 65 67 85 113 88 203 l4 75 -46 33 c-25 18 -50 30 -55 27 -6 -3 -7
1 -4 9 6 14 -5 21 -28 17 -5 0 -8 6 -8 14 0 9 -14 29 -31 46 -31 30 -33 31
-108 25 -59 -5 -83 -3 -105 9 -34 18 -33 18 -39 2z m286 -137 c-3 -12 -8 -19
-11 -16 -5 6 5 36 12 36 2 0 2 -9 -1 -20z"/>
<path d="M4886 1051 c-3 -5 6 -8 19 -8 14 0 25 3 25 8 0 5 -9 9 -19 9 -11 0
-22 -4 -25 -9z"/>
<path d="M5000 1050 c0 -12 8 -12 35 0 18 8 17 9 -7 9 -16 1 -28 -3 -28 -9z"/>
<path d="M4900 1020 c0 -5 5 -10 10 -10 6 0 10 5 10 10 0 6 -4 10 -10 10 -5 0
-10 -4 -10 -10z"/>
<path d="M5015 1020 c3 -5 8 -10 11 -10 2 0 4 5 4 10 0 6 -5 10 -11 10 -5 0
-7 -4 -4 -10z"/>
<path d="M1180 1000 c0 -5 5 -10 10 -10 6 0 10 5 10 10 0 6 -4 10 -10 10 -5 0
-10 -4 -10 -10z"/>
<path d="M1310 1000 c0 -5 5 -10 10 -10 6 0 10 5 10 10 0 6 -4 10 -10 10 -5 0
-10 -4 -10 -10z"/>
<path d="M1235 890 c3 -5 15 -10 25 -10 10 0 22 5 25 10 4 6 -7 10 -25 10 -18
0 -29 -4 -25 -10z"/>
<path d="M1321 774 c0 -11 3 -14 6 -6 3 7 2 16 -1 19 -3 4 -6 -2 -5 -13z"/>
<path d="M1308 583 c6 -2 18 -2 25 0 6 3 1 5 -13 5 -14 0 -19 -2 -12 -5z"/>
<path d="M3183 491 c-24 -11 -43 -27 -43 -36 0 -8 -3 -15 -8 -15 -16 0 -36
-67 -35 -120 0 -103 64 -193 114 -161 16 9 24 9 34 1 9 -8 20 -8 31 -2 11 6
25 5 42 -4 18 -9 31 -10 45 -2 14 7 17 7 13 -1 -4 -7 1 -11 12 -11 19 0 19 -2
4 -44 -19 -53 -12 -65 22 -42 17 11 23 22 20 34 -4 12 -3 13 3 4 24 -32 83 87
83 168 0 61 -1 62 -49 105 -23 20 -32 24 -28 13 4 -10 2 -18 -3 -18 -6 0 -10
6 -10 14 0 25 -43 96 -68 112 -40 26 -129 28 -179 5z m33 -182 c10 -17 -13
-36 -27 -22 -12 12 -4 33 11 33 5 0 12 -5 16 -11z m120 0 c10 -17 -13 -36 -27
-22 -12 12 -4 33 11 33 5 0 12 -5 16 -11z m105 -26 c-12 -20 -14 -14 -5 12 4
9 9 14 11 11 3 -2 0 -13 -6 -23z"/>
<path d="M3195 300 c3 -5 8 -10 11 -10 2 0 4 5 4 10 0 6 -5 10 -11 10 -5 0 -7
-4 -4 -10z"/>
<path d="M3310 299 c0 -5 5 -7 10 -4 6 3 10 8 10 11 0 2 -4 4 -10 4 -5 0 -10
-5 -10 -11z"/>
<path d="M3865 180 c-3 -6 1 -7 9 -4 18 7 21 14 7 14 -6 0 -13 -4 -16 -10z"/>
<path d="M3105 100 c-7 -23 -1 -36 25 -50 15 -8 19 -7 16 2 -3 7 -7 25 -10 41
-7 32 -22 35 -31 7z"/>
</g>
</svg>
