<svg width="1379" height="779" viewBox="0 0 1379 779" fill="none" xmlns="http://www.w3.org/2000/svg">
<path fill-rule="evenodd" clip-rule="evenodd" d="M576.406 408.77C566.862 425.301 572.526 446.44 589.057 455.984C605.589 465.528 626.727 459.864 636.271 443.333L699.62 333.611C709.164 317.08 703.5 295.941 686.969 286.397C670.437 276.853 649.299 282.517 639.755 299.048L576.406 408.77Z" fill="#8AF6DE"/>
<path fill-rule="evenodd" clip-rule="evenodd" d="M956.662 80.2138C966.206 63.6826 987.345 58.0187 1003.88 67.563C1020.41 77.1073 1026.07 98.2456 1016.53 114.777L664.541 724.433C654.997 740.965 633.859 746.629 617.327 737.084C600.796 727.54 595.132 706.402 604.676 689.87L956.662 80.2138Z" fill="#8AF6DE"/>
<ellipse cx="391" cy="314" rx="258" ry="261" fill="#8AF6DE"/>
<g filter="url(#filter0_d)">
<rect x="166.469" y="142" width="946" height="478" rx="10" fill="white"/>
<rect x="166.969" y="142.5" width="945" height="477" rx="9.5" stroke="#E6E6E6"/>
</g>
<g filter="url(#filter1_d)">
<path fill-rule="evenodd" clip-rule="evenodd" d="M188.469 201.752C188.469 198.575 191.044 196 194.221 196H1084.72C1087.89 196 1090.47 198.575 1090.47 201.752V306.248C1090.47 309.425 1087.89 312 1084.72 312H194.221C191.044 312 188.469 309.425 188.469 306.248V201.752Z" fill="white"/>
<path d="M188.969 201.752C188.969 198.852 191.32 196.5 194.221 196.5H1084.72C1087.62 196.5 1089.97 198.852 1089.97 201.752V306.248C1089.97 309.148 1087.62 311.5 1084.72 311.5H194.221C191.32 311.5 188.969 309.148 188.969 306.248V201.752Z" stroke="#E6E6E6"/>
</g>
<rect x="962.469" y="217" width="113.531" height="45" rx="3" fill="#C13737" fill-opacity="0.05"/>
<rect x="962.969" y="217.5" width="112.531" height="44" rx="2.5" stroke="#C13737" stroke-opacity="0.5"/>
<path d="M978.764 241.086C979.467 242.049 980.508 242.531 981.889 242.531C983.269 242.531 984.311 242.049 985.014 241.086C985.723 240.116 986.078 238.791 986.078 237.111C986.078 235.432 985.72 234.11 985.004 233.146C984.288 232.176 983.253 231.691 981.898 231.691C980.544 231.691 979.506 232.167 978.783 233.117C978.067 234.068 977.709 235.393 977.709 237.092C977.709 238.785 978.061 240.116 978.764 241.086ZM975.209 237.141C975.209 234.803 975.814 232.964 977.025 231.623C978.243 230.282 979.877 229.611 981.928 229.611C983.979 229.611 985.6 230.279 986.791 231.613C987.982 232.948 988.578 234.781 988.578 237.111C988.578 239.442 987.986 241.275 986.801 242.609C985.616 243.944 983.992 244.611 981.928 244.611C979.877 244.611 978.243 243.951 977.025 242.629C975.814 241.301 975.209 239.471 975.209 237.141ZM989.56 233.85H992.206L994.902 241.691L997.646 233.85H1000.17L996.025 244.25H993.681L989.56 233.85ZM1008.56 238.029C1008.56 236.187 1007.72 235.266 1006.04 235.266C1005.2 235.266 1004.56 235.516 1004.12 236.018C1003.68 236.519 1003.43 237.189 1003.36 238.029H1008.56ZM1006.1 244.572C1004.44 244.572 1003.19 244.097 1002.33 243.146C1001.47 242.189 1001.04 240.839 1001.04 239.094C1001.04 237.349 1001.5 235.985 1002.43 235.002C1003.36 234.019 1004.59 233.527 1006.13 233.527C1007.66 233.527 1008.82 233.983 1009.6 234.895C1010.39 235.806 1010.79 237.043 1010.79 238.605V239.611H1003.32C1003.35 240.555 1003.59 241.32 1004.04 241.906C1004.49 242.492 1005.13 242.785 1005.95 242.785C1006.77 242.785 1007.36 242.645 1007.72 242.365C1008.08 242.085 1008.32 241.688 1008.44 241.174H1010.64C1010.24 243.439 1008.73 244.572 1006.1 244.572ZM1015.07 238.146V244.25H1012.78V233.85H1015V235.393C1015.75 234.26 1016.72 233.693 1017.92 233.693C1018.38 233.693 1018.72 233.719 1018.94 233.771L1018.68 235.852C1018.43 235.786 1018.12 235.754 1017.75 235.754C1016.98 235.754 1016.34 235.975 1015.83 236.418C1015.32 236.861 1015.07 237.437 1015.07 238.146ZM1027.15 238.83C1027.15 237.489 1026.86 236.558 1026.27 236.037C1025.79 235.607 1025.19 235.393 1024.47 235.393C1023.22 235.393 1022.47 235.835 1022.21 236.721C1021.96 237.606 1021.83 238.384 1021.83 239.055C1021.83 240.331 1022.07 241.258 1022.53 241.838C1023.01 242.417 1023.61 242.707 1024.33 242.707C1025.05 242.707 1025.65 242.502 1026.15 242.092C1026.82 241.545 1027.15 240.637 1027.15 239.367V238.83ZM1027.17 242.814C1026.33 243.986 1025.2 244.572 1023.78 244.572C1022.36 244.572 1021.29 244.071 1020.55 243.068C1019.82 242.066 1019.45 240.725 1019.45 239.045C1019.45 237.372 1019.86 236.034 1020.68 235.031C1021.5 234.029 1022.58 233.527 1023.91 233.527C1025.25 233.527 1026.32 234.022 1027.13 235.012V229.973H1029.41V244.25H1027.17V242.814ZM1031.7 240.754V233.85H1033.97V240.393C1033.97 241.245 1034.12 241.835 1034.4 242.16C1034.69 242.486 1035.08 242.648 1035.57 242.648C1036.05 242.648 1036.44 242.587 1036.73 242.463C1037.01 242.333 1037.37 242.082 1037.78 241.711C1038.21 241.333 1038.42 240.78 1038.42 240.051V233.85H1040.69V244.25H1038.48V242.727C1037.57 243.957 1036.49 244.572 1035.23 244.572C1033.97 244.572 1033.07 244.26 1032.52 243.635C1031.97 243.003 1031.7 242.043 1031.7 240.754ZM1050.24 238.029C1050.24 236.187 1049.4 235.266 1047.72 235.266C1046.88 235.266 1046.24 235.516 1045.8 236.018C1045.36 236.519 1045.11 237.189 1045.04 238.029H1050.24ZM1047.78 244.572C1046.12 244.572 1044.87 244.097 1044.01 243.146C1043.15 242.189 1042.72 240.839 1042.72 239.094C1042.72 237.349 1043.18 235.985 1044.11 235.002C1045.04 234.019 1046.27 233.527 1047.81 233.527C1049.34 233.527 1050.5 233.983 1051.28 234.895C1052.07 235.806 1052.47 237.043 1052.47 238.605V239.611H1045.01C1045.03 240.555 1045.27 241.32 1045.72 241.906C1046.17 242.492 1046.81 242.785 1047.63 242.785C1048.45 242.785 1049.04 242.645 1049.4 242.365C1049.76 242.085 1050.01 241.688 1050.12 241.174H1052.32C1051.92 243.439 1050.41 244.572 1047.78 244.572Z" fill="#C13737"/>
<rect x="218.469" y="229" width="169" height="15" rx="4" fill="#E6E6E6"/>
<rect x="582.469" y="229" width="169" height="15" rx="4" fill="#E6E6E6"/>
<rect x="772.469" y="229" width="169" height="15" rx="4" fill="#E6E6E6"/>
<rect x="218.469" y="254" width="296" height="15" rx="4" fill="#E6E6E6"/>
<rect x="559.469" y="24" width="160" height="52" rx="26" fill="#505050"/>
<path d="M584.371 40.8223H579.85V38.7227H591.285V40.8223H586.793V53H584.371V40.8223ZM592.628 50.4805C593.077 51.1445 593.78 51.4766 594.738 51.4766C595.701 51.4766 596.404 51.1445 596.847 50.4805C597.296 49.8164 597.521 48.918 597.521 47.7852C597.521 46.6458 597.296 45.7507 596.847 45.0996C596.404 44.4486 595.708 44.123 594.757 44.123C593.807 44.123 593.103 44.4518 592.648 45.1094C592.192 45.7669 591.964 46.6589 591.964 47.7852C591.964 48.9115 592.185 49.8099 592.628 50.4805ZM594.708 53.3223C593.107 53.3223 591.853 52.8372 590.948 51.8672C590.05 50.8906 589.601 49.543 589.601 47.8242C589.601 46.1055 590.066 44.7513 590.997 43.7617C591.928 42.7721 593.188 42.2773 594.777 42.2773C596.365 42.2773 597.612 42.7689 598.517 43.752C599.428 44.735 599.884 46.0762 599.884 47.7754C599.884 49.4811 599.422 50.832 598.497 51.8281C597.579 52.8242 596.316 53.3223 594.708 53.3223ZM601.569 45.959H607.487V48.2246H601.569V45.959ZM616.867 47.5801C616.867 46.2389 616.574 45.3079 615.988 44.7871C615.506 44.3574 614.904 44.1426 614.181 44.1426C612.931 44.1426 612.179 44.5853 611.925 45.4707C611.671 46.3561 611.545 47.1341 611.545 47.8047C611.545 49.0807 611.779 50.0085 612.248 50.5879C612.723 51.1673 613.322 51.457 614.045 51.457C614.761 51.457 615.366 51.252 615.861 50.8418C616.532 50.2949 616.867 49.3867 616.867 48.1172V47.5801ZM616.886 51.5645C616.046 52.7363 614.917 53.3223 613.498 53.3223C612.078 53.3223 611.001 52.821 610.265 51.8184C609.53 50.8158 609.162 49.4746 609.162 47.7949C609.162 46.1217 609.572 44.7839 610.392 43.7812C611.212 42.7786 612.29 42.2773 613.625 42.2773C614.959 42.2773 616.033 42.7721 616.847 43.7617V38.7227H619.123V53H616.886V51.5645ZM624.177 50.4805C624.626 51.1445 625.329 51.4766 626.286 51.4766C627.249 51.4766 627.953 51.1445 628.395 50.4805C628.845 49.8164 629.069 48.918 629.069 47.7852C629.069 46.6458 628.845 45.7507 628.395 45.0996C627.953 44.4486 627.256 44.123 626.305 44.123C625.355 44.123 624.652 44.4518 624.196 45.1094C623.74 45.7669 623.513 46.6589 623.513 47.7852C623.513 48.9115 623.734 49.8099 624.177 50.4805ZM626.257 53.3223C624.655 53.3223 623.402 52.8372 622.497 51.8672C621.598 50.8906 621.149 49.543 621.149 47.8242C621.149 46.1055 621.615 44.7513 622.546 43.7617C623.477 42.7721 624.736 42.2773 626.325 42.2773C627.914 42.2773 629.16 42.7689 630.065 43.752C630.977 44.735 631.432 46.0762 631.432 47.7754C631.432 49.4811 630.97 50.832 630.046 51.8281C629.128 52.8242 627.865 53.3223 626.257 53.3223ZM637.751 38.7227H640.036V53H637.751V38.7227ZM642.434 38.7227H644.797V40.9785H642.434V38.7227ZM642.473 42.5996H644.758V53H642.473V42.5996ZM651.404 44.0156C649.783 44.0156 648.972 44.4355 648.972 45.2754C648.972 45.679 649.089 45.9785 649.324 46.1738C649.565 46.3626 650.03 46.5124 650.72 46.623L652.117 46.8574C654.018 47.1569 655.086 47.6615 655.32 48.3711C655.561 49.0807 655.681 49.6764 655.681 50.1582C655.681 51.0892 655.32 51.8509 654.597 52.4434C653.875 53.0293 652.781 53.3223 651.316 53.3223C649.207 53.3223 647.895 52.9056 647.38 52.0723C646.873 51.2389 646.599 50.487 646.56 49.8164H648.738C648.842 50.4805 649.115 50.9329 649.558 51.1738C650.007 51.4147 650.58 51.5352 651.277 51.5352C652.703 51.5352 653.416 51.0892 653.416 50.1973C653.416 49.8522 653.311 49.5592 653.103 49.3184C652.901 49.0775 652.478 48.9049 651.834 48.8008L650.457 48.5566C649.194 48.3678 648.266 48.0358 647.673 47.5605C647.088 47.0853 646.795 46.3757 646.795 45.4316C646.795 44.4811 647.192 43.7194 647.986 43.1465C648.78 42.5671 649.819 42.2773 651.101 42.2773C653.217 42.2773 654.467 42.6745 654.851 43.4688C655.242 44.263 655.476 44.8652 655.554 45.2754L653.513 45.5586C653.351 45.0378 653.106 44.6504 652.781 44.3965C652.455 44.1426 651.996 44.0156 651.404 44.0156ZM658.186 44.3965H656.565V42.5996H658.186V39.7969H660.462V42.5996H663.04V44.3965H660.462V49.8359C660.462 50.8516 660.895 51.3594 661.761 51.3594C662.242 51.3594 662.662 51.3008 663.02 51.1836L663.362 52.8828C662.724 53.0977 662.031 53.2018 661.282 53.1953C660.136 53.1953 659.332 52.8958 658.87 52.2969C658.414 51.6979 658.186 50.8125 658.186 49.6406V44.3965Z" fill="#FFFFFD"/>
<path d="M673.04 38.3223C671.614 40.8939 670.902 43.7552 670.902 46.9062C670.902 50.0508 671.614 52.9089 673.04 55.4805H670.902C669.749 53.7031 669.062 52.0267 668.841 50.4512C668.626 48.8691 668.519 47.4922 668.519 46.3203C668.519 45.1419 668.727 43.804 669.144 42.3066C669.567 40.8092 670.153 39.4811 670.902 38.3223H673.04ZM680.936 44.4062C681.092 44.0026 681.17 43.5013 681.17 42.9023C681.17 42.3034 680.972 41.8053 680.575 41.4082C680.184 41.0046 679.611 40.8027 678.856 40.8027C678.101 40.8027 677.518 40.9818 677.108 41.3398C676.704 41.6979 676.398 42.2904 676.19 43.1172L674.002 42.8242C674.276 41.6068 674.787 40.6335 675.536 39.9043C676.291 39.1686 677.427 38.8008 678.944 38.8008C680.461 38.8008 681.607 39.1784 682.381 39.9336C683.156 40.6823 683.543 41.6491 683.543 42.834C683.543 44.0189 683.215 45.1126 682.557 46.1152C681.899 47.1178 680.988 48.0944 679.823 49.0449C678.664 49.9889 677.892 50.6335 677.508 50.9785H683.729L683.446 53H674.149V51.2227C674.696 50.7539 675.256 50.2786 675.829 49.7969C676.401 49.3086 676.984 48.804 677.577 48.2832C678.169 47.7624 678.687 47.2871 679.129 46.8574C679.579 46.4212 679.953 46.0046 680.252 45.6074C680.552 45.2038 680.78 44.8034 680.936 44.4062ZM695.404 48.9766C695.404 50.3047 695.007 51.3691 694.213 52.1699C693.425 52.9642 692.181 53.3613 690.482 53.3613C688.783 53.3613 687.546 52.9284 686.771 52.0625C686.003 51.1966 685.586 50.1419 685.521 48.8984H687.826C687.917 49.7773 688.164 50.4154 688.568 50.8125C688.978 51.2031 689.629 51.3984 690.521 51.3984C692.214 51.3984 693.06 50.8092 693.06 49.6309C693.06 48.4525 692.852 47.694 692.435 47.3555C692.025 47.0104 691.407 46.8379 690.58 46.8379H689.086V44.8164H690.677C691.354 44.8164 691.879 44.6406 692.25 44.2891C692.621 43.9375 692.806 43.4427 692.806 42.8047C692.806 41.4505 692.045 40.7702 690.521 40.7637C689.733 40.7637 689.131 40.9329 688.714 41.2715C688.304 41.61 688.002 42.1602 687.806 42.9219L685.638 42.6191C686.146 40.0736 687.78 38.8008 690.541 38.8008C692.012 38.8008 693.135 39.1426 693.91 39.8262C694.691 40.5098 695.082 41.3887 695.082 42.4629C695.082 43.9277 694.44 44.9922 693.158 45.6562C694.655 46.2552 695.404 47.362 695.404 48.9766ZM696.473 55.4805C697.906 52.8958 698.622 50.0378 698.622 46.9062C698.622 43.7682 697.906 40.9069 696.473 38.3223H698.622C700.204 40.7637 700.995 43.3939 700.995 46.2129C700.995 49.0319 700.692 51.138 700.087 52.5312C699.481 53.9245 698.993 54.9076 698.622 55.4805H696.473Z" fill="#E6E6E6"/>
<g filter="url(#filter2_d)">
<path fill-rule="evenodd" clip-rule="evenodd" d="M188.469 322.752C188.469 319.575 191.044 317 194.221 317H1084.72C1087.89 317 1090.47 319.575 1090.47 322.752V427.248C1090.47 430.425 1087.89 433 1084.72 433H194.221C191.044 433 188.469 430.425 188.469 427.248V322.752Z" fill="white"/>
<path d="M188.969 322.752C188.969 319.852 191.32 317.5 194.221 317.5H1084.72C1087.62 317.5 1089.97 319.852 1089.97 322.752V427.248C1089.97 430.148 1087.62 432.5 1084.72 432.5H194.221C191.32 432.5 188.969 430.148 188.969 427.248V322.752Z" stroke="#E6E6E6"/>
</g>
<rect x="218.469" y="348" width="169" height="15" rx="4" fill="#E6E6E6"/>
<rect x="582.469" y="348" width="169" height="15" rx="4" fill="#E6E6E6"/>
<rect x="772.469" y="348" width="169" height="15" rx="4" fill="#E6E6E6"/>
<rect x="218.469" y="373" width="296" height="15" rx="4" fill="#E6E6E6"/>
<rect x="963.469" y="338" width="93.5312" height="43" rx="3" fill="#9213E4" fill-opacity="0.05"/>
<rect x="963.969" y="338.5" width="92.5312" height="42" rx="2.5" stroke="#9213E4" stroke-opacity="0.5"/>
<path d="M976.174 349.473H978.576V358.027C978.576 359.362 978.82 360.365 979.309 361.035C979.803 361.699 980.624 362.031 981.77 362.031C982.922 362.031 983.732 361.699 984.201 361.035C984.676 360.365 984.914 359.362 984.914 358.027V349.473H987.336V358.027C987.336 361.12 986.623 362.907 985.197 363.389C983.771 363.87 982.626 364.111 981.76 364.111C979.989 364.111 978.615 363.63 977.639 362.666C976.662 361.696 976.174 360.13 976.174 357.969V349.473ZM992.009 357.646V363.75H989.724V353.35H991.941V354.893C992.689 353.76 993.663 353.193 994.861 353.193C995.316 353.193 995.658 353.219 995.886 353.271L995.622 355.352C995.375 355.286 995.066 355.254 994.695 355.254C993.92 355.254 993.279 355.475 992.771 355.918C992.263 356.361 992.009 356.937 992.009 357.646ZM1004.09 358.174C1004.09 355.986 1003.2 354.893 1001.41 354.893C1000.17 354.893 999.413 355.306 999.153 356.133C998.899 356.96 998.772 357.679 998.772 358.291C998.772 359.43 999.01 360.28 999.485 360.84C999.967 361.393 1000.59 361.67 1001.37 361.67C1002.14 361.67 1002.79 361.416 1003.31 360.908C1003.83 360.4 1004.09 359.593 1004.09 358.486V358.174ZM1004.13 353.35H1006.35V362.188C1006.35 364.069 1005.99 365.482 1005.26 366.426C1004.53 367.376 1003.35 367.852 1001.71 367.852C1000.08 367.852 998.886 367.588 998.137 367.061C997.388 366.533 996.946 365.697 996.809 364.551H999.094C999.211 365.137 999.452 365.534 999.817 365.742C1000.19 365.951 1000.7 366.055 1001.35 366.055C1002 366.055 1002.49 365.967 1002.82 365.791C1003.16 365.615 1003.46 365.316 1003.7 364.893C1003.95 364.469 1004.07 363.688 1004.07 362.549V361.846C1003.31 362.939 1002.21 363.486 1000.77 363.486C999.329 363.486 998.235 363.011 997.493 362.061C996.757 361.104 996.389 359.84 996.389 358.271C996.389 356.702 996.802 355.436 997.629 354.473C998.456 353.509 999.54 353.027 1000.88 353.027C1002.22 353.027 1003.31 353.555 1004.13 354.609V353.35ZM1015.9 357.529C1015.9 355.687 1015.06 354.766 1013.38 354.766C1012.54 354.766 1011.9 355.016 1011.45 355.518C1011.02 356.019 1010.77 356.689 1010.7 357.529H1015.9ZM1013.44 364.072C1011.78 364.072 1010.53 363.597 1009.67 362.646C1008.81 361.689 1008.38 360.339 1008.38 358.594C1008.38 356.849 1008.84 355.485 1009.76 354.502C1010.69 353.519 1011.93 353.027 1013.46 353.027C1015 353.027 1016.16 353.483 1016.94 354.395C1017.73 355.306 1018.12 356.543 1018.12 358.105V359.111H1010.66C1010.69 360.055 1010.93 360.82 1011.37 361.406C1011.83 361.992 1012.47 362.285 1013.29 362.285C1014.11 362.285 1014.7 362.145 1015.06 361.865C1015.42 361.585 1015.66 361.188 1015.78 360.674H1017.98C1017.58 362.939 1016.07 364.072 1013.44 364.072ZM1025.76 353.027C1028.08 353.027 1029.24 354.307 1029.24 356.865V363.75H1026.96V357.227C1026.96 356.374 1026.8 355.781 1026.5 355.449C1026.2 355.117 1025.72 354.951 1025.05 354.951C1024.39 354.951 1023.78 355.199 1023.24 355.693C1022.69 356.188 1022.41 356.807 1022.41 357.549V363.75H1020.12V353.35H1022.32V354.873C1023.22 353.643 1024.37 353.027 1025.76 353.027ZM1032.15 355.146H1030.53V353.35H1032.15V350.547H1034.42V353.35H1037V355.146H1034.42V360.586C1034.42 361.602 1034.85 362.109 1035.72 362.109C1036.2 362.109 1036.62 362.051 1036.98 361.934L1037.32 363.633C1036.68 363.848 1035.99 363.952 1035.24 363.945C1034.1 363.945 1033.29 363.646 1032.83 363.047C1032.37 362.448 1032.15 361.562 1032.15 360.391V355.146Z" fill="#9213E4"/>
<path d="M1106.29 659.379C1112.28 669.911 1108.6 683.303 1098.07 689.292C1087.53 695.28 1074.14 691.597 1068.15 681.066C1062.16 670.534 1065.85 657.142 1076.38 651.153C1086.91 645.165 1100.3 648.847 1106.29 659.379Z" stroke="url(#paint0_angular)" stroke-width="12.1879"/>
<g filter="url(#filter3_d)">
<path fill-rule="evenodd" clip-rule="evenodd" d="M188.469 443.752C188.469 440.575 191.044 438 194.221 438H1084.72C1087.89 438 1090.47 440.575 1090.47 443.752V548.248C1090.47 551.425 1087.89 554 1084.72 554H194.221C191.044 554 188.469 551.425 188.469 548.248V443.752Z" fill="white"/>
<path d="M188.969 443.752C188.969 440.852 191.32 438.5 194.221 438.5H1084.72C1087.62 438.5 1089.97 440.852 1089.97 443.752V548.248C1089.97 551.148 1087.62 553.5 1084.72 553.5H194.221C191.32 553.5 188.969 551.148 188.969 548.248V443.752Z" stroke="#E6E6E6"/>
</g>
<rect x="218.469" y="469" width="169" height="15" rx="4" fill="#E6E6E6"/>
<rect x="582.469" y="469" width="169" height="15" rx="4" fill="#E6E6E6"/>
<rect x="772.469" y="469" width="80" height="15" rx="4" fill="#E6E6E6"/>
<rect x="218.469" y="494" width="296" height="15" rx="4" fill="#E6E6E6"/>
<rect x="874.469" y="459" width="188.531" height="37" rx="3" fill="#AB8A00" fill-opacity="0.05"/>
<rect x="874.969" y="459.5" width="187.531" height="36" rx="2.5" stroke="#AB8A00" stroke-opacity="0.5"/>
<path d="M885.719 467.973H888.434L891.07 478.812L893.795 468.051H896.373L899.137 478.793L901.695 467.973H904.273L900.338 482.25H897.916L895.016 471.01L892.154 482.25H889.811L885.719 467.973ZM906.915 478.197C906.739 478.66 906.652 479.073 906.652 479.438C906.652 479.802 906.785 480.111 907.052 480.365C907.325 480.619 907.827 480.746 908.556 480.746C909.285 480.746 909.923 480.531 910.47 480.102C911.017 479.665 911.29 479.027 911.29 478.188V477.328L909.835 477.387C908.071 477.458 907.098 477.729 906.915 478.197ZM908.126 482.514C906.928 482.514 906.004 482.25 905.353 481.723C904.702 481.195 904.376 480.417 904.376 479.389C904.376 477.527 905.105 476.482 906.564 476.254C908.022 476.026 909.083 475.899 909.747 475.873L911.29 475.785V475.346C911.29 474.584 911.111 474.047 910.753 473.734C910.395 473.422 909.871 473.266 909.181 473.266C908.491 473.266 907.976 473.386 907.638 473.627C907.299 473.868 907.078 474.216 906.974 474.672L904.913 474.447C905.102 473.432 905.564 472.693 906.3 472.23C907.042 471.762 908.045 471.527 909.308 471.527C911.495 471.527 912.742 472.048 913.048 473.09C913.354 474.132 913.507 474.965 913.507 475.59V482.25H911.329V480.893C910.945 481.348 910.48 481.732 909.933 482.045C909.392 482.357 908.79 482.514 908.126 482.514ZM915.788 467.973H918.151V470.229H915.788V467.973ZM915.827 471.85H918.112V482.25H915.827V471.85ZM921.134 473.646H919.513V471.85H921.134V469.047H923.41V471.85H925.988V473.646H923.41V479.086C923.41 480.102 923.843 480.609 924.709 480.609C925.19 480.609 925.61 480.551 925.968 480.434L926.31 482.133C925.672 482.348 924.979 482.452 924.23 482.445C923.084 482.445 922.28 482.146 921.818 481.547C921.362 480.948 921.134 480.062 921.134 478.891V473.646ZM927.575 467.973H929.938V470.229H927.575V467.973ZM927.614 471.85H929.899V482.25H927.614V471.85ZM937.941 471.527C940.259 471.527 941.418 472.807 941.418 475.365V482.25H939.133V475.727C939.133 474.874 938.98 474.281 938.674 473.949C938.374 473.617 937.893 473.451 937.229 473.451C936.564 473.451 935.959 473.699 935.412 474.193C934.865 474.688 934.589 475.307 934.582 476.049V482.25H932.297V471.85H934.494V473.373C935.399 472.143 936.548 471.527 937.941 471.527ZM951.062 476.674C951.062 474.486 950.167 473.393 948.376 473.393C947.133 473.393 946.381 473.806 946.12 474.633C945.866 475.46 945.739 476.179 945.739 476.791C945.739 477.93 945.977 478.78 946.452 479.34C946.934 479.893 947.562 480.17 948.337 480.17C949.112 480.17 949.76 479.916 950.28 479.408C950.801 478.9 951.062 478.093 951.062 476.986V476.674ZM951.101 471.85H953.318V480.688C953.318 482.569 952.953 483.982 952.224 484.926C951.501 485.876 950.32 486.352 948.679 486.352C947.045 486.352 945.853 486.088 945.105 485.561C944.356 485.033 943.913 484.197 943.777 483.051H946.062C946.179 483.637 946.42 484.034 946.784 484.242C947.155 484.451 947.667 484.555 948.318 484.555C948.969 484.555 949.46 484.467 949.792 484.291C950.131 484.115 950.424 483.816 950.671 483.393C950.918 482.969 951.042 482.188 951.042 481.049V480.346C950.28 481.439 949.18 481.986 947.741 481.986C946.296 481.986 945.202 481.511 944.46 480.561C943.724 479.604 943.357 478.34 943.357 476.771C943.357 475.202 943.77 473.936 944.597 472.973C945.424 472.009 946.508 471.527 947.849 471.527C949.19 471.527 950.274 472.055 951.101 473.109V471.85ZM960.603 473.646H958.982V471.85H960.603V471.254C960.603 470.095 960.916 469.232 961.541 468.666C962.166 468.093 962.986 467.807 964.002 467.807C964.672 467.807 965.326 467.901 965.964 468.09L965.623 469.789C965.226 469.672 964.825 469.613 964.421 469.613C964.018 469.613 963.66 469.727 963.347 469.955C963.035 470.176 962.879 470.587 962.879 471.186V471.85H965.398V473.646H962.879V482.25H960.603V473.646ZM969.046 479.73C969.495 480.395 970.198 480.727 971.155 480.727C972.119 480.727 972.822 480.395 973.264 479.73C973.714 479.066 973.938 478.168 973.938 477.035C973.938 475.896 973.714 475.001 973.264 474.35C972.822 473.699 972.125 473.373 971.175 473.373C970.224 473.373 969.521 473.702 969.065 474.359C968.61 475.017 968.382 475.909 968.382 477.035C968.382 478.161 968.603 479.06 969.046 479.73ZM971.126 482.572C969.524 482.572 968.271 482.087 967.366 481.117C966.468 480.141 966.018 478.793 966.018 477.074C966.018 475.355 966.484 474.001 967.415 473.012C968.346 472.022 969.606 471.527 971.194 471.527C972.783 471.527 974.029 472.019 974.934 473.002C975.846 473.985 976.302 475.326 976.302 477.025C976.302 478.731 975.839 480.082 974.915 481.078C973.997 482.074 972.734 482.572 971.126 482.572ZM980.613 476.146V482.25H978.328V471.85H980.545V473.393C981.294 472.26 982.267 471.693 983.465 471.693C983.921 471.693 984.262 471.719 984.49 471.771L984.227 473.852C983.979 473.786 983.67 473.754 983.299 473.754C982.524 473.754 981.883 473.975 981.375 474.418C980.867 474.861 980.613 475.437 980.613 476.146ZM994.95 471.527C996.284 471.527 997.297 471.85 997.987 472.494C998.683 473.132 999.107 473.992 999.256 475.072L996.991 475.414C996.886 474.815 996.685 474.327 996.385 473.949C996.092 473.565 995.646 473.373 995.047 473.373C994.448 473.373 993.833 473.555 993.202 473.92C992.57 474.285 992.254 475.326 992.254 477.045C992.254 478.764 992.564 479.809 993.182 480.18C993.801 480.544 994.409 480.727 995.008 480.727C996.206 480.727 996.909 480.02 997.118 478.607H999.412C999.282 479.831 998.846 480.798 998.104 481.508C997.362 482.217 996.226 482.572 994.696 482.572C993.166 482.572 991.981 482.084 991.141 481.107C990.308 480.131 989.891 478.796 989.891 477.104C989.891 475.411 990.34 474.06 991.239 473.051C992.137 472.035 993.374 471.527 994.95 471.527ZM1001.36 467.973H1003.65V482.25H1001.36V467.973ZM1006.04 467.973H1008.41V470.229H1006.04V467.973ZM1006.08 471.85H1008.37V482.25H1006.08V471.85ZM1017.94 476.029C1017.94 474.187 1017.1 473.266 1015.42 473.266C1014.58 473.266 1013.94 473.516 1013.5 474.018C1013.06 474.519 1012.81 475.189 1012.75 476.029H1017.94ZM1015.48 482.572C1013.83 482.572 1012.57 482.097 1011.71 481.146C1010.85 480.189 1010.42 478.839 1010.42 477.094C1010.42 475.349 1010.89 473.985 1011.81 473.002C1012.74 472.019 1013.98 471.527 1015.51 471.527C1017.05 471.527 1018.21 471.983 1018.99 472.895C1019.78 473.806 1020.17 475.043 1020.17 476.605V477.611H1012.71C1012.74 478.555 1012.97 479.32 1013.42 479.906C1013.88 480.492 1014.52 480.785 1015.34 480.785C1016.16 480.785 1016.75 480.645 1017.1 480.365C1017.47 480.085 1017.71 479.688 1017.83 479.174H1020.02C1019.63 481.439 1018.11 482.572 1015.48 482.572ZM1027.81 471.527C1030.13 471.527 1031.29 472.807 1031.29 475.365V482.25H1029V475.727C1029 474.874 1028.85 474.281 1028.54 473.949C1028.24 473.617 1027.76 473.451 1027.1 473.451C1026.43 473.451 1025.83 473.699 1025.28 474.193C1024.74 474.688 1024.46 475.307 1024.45 476.049V482.25H1022.17V471.85H1024.36V473.373C1025.27 472.143 1026.42 471.527 1027.81 471.527ZM1034.19 473.646H1032.57V471.85H1034.19V469.047H1036.47V471.85H1039.05V473.646H1036.47V479.086C1036.47 480.102 1036.9 480.609 1037.77 480.609C1038.25 480.609 1038.67 480.551 1039.03 480.434L1039.37 482.133C1038.73 482.348 1038.04 482.452 1037.29 482.445C1036.14 482.445 1035.34 482.146 1034.88 481.547C1034.42 480.948 1034.19 480.062 1034.19 478.891V473.646Z" fill="#AB8A00"/>
<g filter="url(#filter4_d)">
<path fill-rule="evenodd" clip-rule="evenodd" d="M188.469 564.752C188.469 561.575 191.044 559 194.221 559H1084.72C1087.89 559 1090.47 561.575 1090.47 564.752V669.248C1090.47 672.425 1087.89 675 1084.72 675H194.221C191.044 675 188.469 672.425 188.469 669.248V564.752Z" fill="white"/>
<path d="M188.969 564.752C188.969 561.852 191.32 559.5 194.221 559.5H1084.72C1087.62 559.5 1089.97 561.852 1089.97 564.752V669.248C1089.97 672.148 1087.62 674.5 1084.72 674.5H194.221C191.32 674.5 188.969 672.148 188.969 669.248V564.752Z" stroke="#E6E6E6"/>
</g>
<rect x="218.469" y="592" width="169" height="15" rx="4" fill="#E6E6E6"/>
<rect x="582.469" y="592" width="169" height="15" rx="4" fill="#E6E6E6"/>
<rect x="772.469" y="592" width="169" height="15" rx="4" fill="#E6E6E6"/>
<rect x="218.469" y="617" width="296" height="15" rx="4" fill="#E6E6E6"/>
<rect x="963.469" y="579" width="70" height="40" rx="3" fill="#252525" fill-opacity="0.05"/>
<rect x="963.969" y="579.5" width="69" height="39" rx="2.5" stroke="#252525" stroke-opacity="0.5"/>
<path d="M978.059 600.836C978.762 601.799 979.803 602.281 981.184 602.281C982.564 602.281 983.605 601.799 984.309 600.836C985.018 599.866 985.373 598.541 985.373 596.861C985.373 595.182 985.015 593.86 984.299 592.896C983.583 591.926 982.548 591.441 981.193 591.441C979.839 591.441 978.801 591.917 978.078 592.867C977.362 593.818 977.004 595.143 977.004 596.842C977.004 598.535 977.355 599.866 978.059 600.836ZM974.504 596.891C974.504 594.553 975.109 592.714 976.32 591.373C977.538 590.032 979.172 589.361 981.223 589.361C983.273 589.361 984.895 590.029 986.086 591.363C987.277 592.698 987.873 594.531 987.873 596.861C987.873 599.192 987.281 601.025 986.096 602.359C984.911 603.694 983.286 604.361 981.223 604.361C979.172 604.361 977.538 603.701 976.32 602.379C975.109 601.051 974.504 599.221 974.504 596.891ZM992.253 598.98C992.253 601.298 993.155 602.457 994.958 602.457C996.202 602.457 996.95 602.011 997.204 601.119C997.465 600.227 997.595 599.443 997.595 598.766C997.595 597.522 997.361 596.611 996.892 596.031C996.423 595.452 995.798 595.162 995.017 595.162C994.229 595.162 993.571 595.429 993.044 595.963C992.517 596.497 992.253 597.337 992.253 598.482V598.98ZM992.282 607.877H989.997V593.6H992.214V595.035C993.093 593.863 994.232 593.277 995.632 593.277C997.032 593.277 998.106 593.766 998.855 594.742C999.603 595.719 999.978 597.05 999.978 598.736C999.978 600.423 999.571 601.777 998.757 602.799C997.943 603.814 996.863 604.322 995.515 604.322C994.167 604.322 993.09 603.821 992.282 602.818V607.877ZM1009.18 597.779C1009.18 595.937 1008.34 595.016 1006.66 595.016C1005.82 595.016 1005.18 595.266 1004.74 595.768C1004.3 596.269 1004.05 596.939 1003.99 597.779H1009.18ZM1006.72 604.322C1005.07 604.322 1003.81 603.847 1002.95 602.896C1002.09 601.939 1001.66 600.589 1001.66 598.844C1001.66 597.099 1002.12 595.735 1003.05 594.752C1003.98 593.769 1005.21 593.277 1006.75 593.277C1008.29 593.277 1009.45 593.733 1010.23 594.645C1011.01 595.556 1011.41 596.793 1011.41 598.355V599.361H1003.95C1003.97 600.305 1004.21 601.07 1004.66 601.656C1005.12 602.242 1005.75 602.535 1006.57 602.535C1007.39 602.535 1007.98 602.395 1008.34 602.115C1008.71 601.835 1008.95 601.438 1009.06 600.924H1011.26C1010.86 603.189 1009.35 604.322 1006.72 604.322ZM1019.05 593.277C1021.37 593.277 1022.53 594.557 1022.53 597.115V604H1020.24V597.477C1020.24 596.624 1020.09 596.031 1019.78 595.699C1019.48 595.367 1019 595.201 1018.34 595.201C1017.67 595.201 1017.07 595.449 1016.52 595.943C1015.97 596.438 1015.7 597.057 1015.69 597.799V604H1013.41V593.6H1015.6V595.123C1016.51 593.893 1017.66 593.277 1019.05 593.277Z" fill="#252525"/>
<path fill-rule="evenodd" clip-rule="evenodd" d="M167.663 57.9586C165.812 54.7526 166.911 50.6543 170.115 48.8048C173.32 46.9553 177.418 48.0551 179.268 51.2611L203.471 93.2007C205.321 96.4067 204.223 100.505 201.018 102.354C197.814 104.204 193.716 103.104 191.866 99.8982L167.663 57.9586Z" fill="url(#paint1_angular)"/>
<path fill-rule="evenodd" clip-rule="evenodd" d="M167.955 93.483C164.75 95.3325 160.652 94.2328 158.802 91.0268C156.952 87.8207 158.05 83.7224 161.255 81.873L203.178 57.6792C206.383 55.8298 210.481 56.9295 212.331 60.1355C214.182 63.3415 213.083 67.4398 209.879 69.2893L167.955 93.483Z" fill="url(#paint2_angular)"/>
<g filter="url(#filter5_d)">
<path fill-rule="evenodd" clip-rule="evenodd" d="M116 101.752C116 98.5754 118.575 96 121.752 96H1181.25C1184.42 96 1187 98.5754 1187 101.752V200.248C1187 203.425 1184.42 206 1181.25 206H121.752C118.575 206 116 203.425 116 200.248V101.752Z" fill="#E6E6E6"/>
<path d="M116.5 101.752C116.5 98.8516 118.852 96.5 121.752 96.5H1181.25C1184.15 96.5 1186.5 98.8516 1186.5 101.752V200.248C1186.5 203.148 1184.15 205.5 1181.25 205.5H121.752C118.852 205.5 116.5 203.148 116.5 200.248V101.752Z" stroke="#E6E6E6"/>
</g>
<g filter="url(#filter6_d)">
<rect x="1117" y="116" width="162" height="70" rx="4" fill="#FB2152"/>
<rect x="1117.39" y="116.389" width="161.222" height="69.2222" rx="3.61111" stroke="#FB2152" stroke-width="0.777778"/>
</g>
<path d="M1146.3 155.648C1148.43 155.648 1149.64 155.234 1149.92 154.404C1150.21 153.575 1150.36 152.973 1150.36 152.6C1150.36 151.816 1150.12 151.169 1149.65 150.658C1149.17 150.139 1148.34 149.779 1147.16 149.578L1144.62 149.1C1142.45 148.708 1140.86 148.074 1139.84 147.199C1138.84 146.324 1138.34 144.984 1138.34 143.18C1138.34 141.366 1139.03 139.967 1140.42 138.982C1141.8 137.998 1143.7 137.506 1146.11 137.506C1150.52 137.506 1153.01 139.37 1153.57 143.098L1150.38 143.604C1150.12 142.482 1149.66 141.653 1149.02 141.115C1148.38 140.577 1147.36 140.309 1145.96 140.309C1143.79 140.309 1142.54 140.669 1142.22 141.389C1141.91 142.1 1141.76 142.633 1141.76 142.988C1141.76 143.863 1141.99 144.52 1142.47 144.957C1142.95 145.385 1143.79 145.718 1144.98 145.955L1147.75 146.488C1149.85 146.88 1151.4 147.55 1152.39 148.498C1153.39 149.437 1153.88 150.79 1153.88 152.559C1153.88 154.327 1153.23 155.762 1151.92 156.865C1150.6 157.959 1148.71 158.506 1146.23 158.506C1143.75 158.506 1141.78 157.968 1140.32 156.893C1138.87 155.817 1138.08 154.154 1137.93 151.902H1141.33C1141.48 153.206 1141.95 154.158 1142.74 154.76C1143.54 155.352 1144.73 155.648 1146.3 155.648ZM1159.2 152.326C1158.95 152.973 1158.83 153.552 1158.83 154.062C1158.83 154.573 1159.01 155.006 1159.39 155.361C1159.77 155.717 1160.47 155.895 1161.49 155.895C1162.51 155.895 1163.41 155.594 1164.17 154.992C1164.94 154.382 1165.32 153.488 1165.32 152.312V151.109L1163.28 151.191C1160.81 151.292 1159.45 151.67 1159.2 152.326ZM1160.89 158.369C1159.21 158.369 1157.92 158 1157.01 157.262C1156.1 156.523 1155.64 155.434 1155.64 153.994C1155.64 151.387 1156.66 149.924 1158.7 149.605C1160.75 149.286 1162.23 149.109 1163.16 149.072L1165.32 148.949V148.334C1165.32 147.268 1165.07 146.516 1164.57 146.078C1164.07 145.641 1163.33 145.422 1162.37 145.422C1161.4 145.422 1160.68 145.59 1160.21 145.928C1159.73 146.265 1159.42 146.753 1159.28 147.391L1156.39 147.076C1156.66 145.654 1157.31 144.62 1158.34 143.973C1159.37 143.316 1160.78 142.988 1162.55 142.988C1165.61 142.988 1167.35 143.717 1167.78 145.176C1168.21 146.634 1168.43 147.801 1168.43 148.676V158H1165.38V156.1C1164.84 156.738 1164.19 157.275 1163.42 157.713C1162.66 158.15 1161.82 158.369 1160.89 158.369ZM1170.02 143.439H1173.72L1177.5 154.418L1181.34 143.439H1184.87L1179.07 158H1175.79L1170.02 143.439ZM1196.62 149.291C1196.62 146.712 1195.44 145.422 1193.09 145.422C1191.91 145.422 1191.02 145.773 1190.4 146.475C1189.79 147.176 1189.43 148.115 1189.34 149.291H1196.62ZM1193.17 158.451C1190.86 158.451 1189.1 157.786 1187.89 156.455C1186.69 155.115 1186.09 153.224 1186.09 150.781C1186.09 148.339 1186.74 146.429 1188.03 145.053C1189.33 143.676 1191.06 142.988 1193.21 142.988C1195.36 142.988 1196.99 143.626 1198.08 144.902C1199.18 146.178 1199.73 147.91 1199.73 150.098V151.506H1189.29C1189.33 152.827 1189.66 153.898 1190.29 154.719C1190.92 155.539 1191.82 155.949 1192.97 155.949C1194.12 155.949 1194.94 155.753 1195.44 155.361C1195.95 154.969 1196.29 154.413 1196.45 153.693H1199.53C1198.97 156.865 1196.85 158.451 1193.17 158.451ZM1209.36 145.955H1207.09V143.439H1209.36V139.516H1212.55V143.439H1216.15V145.955H1212.55V153.57C1212.55 154.992 1213.15 155.703 1214.36 155.703C1215.04 155.703 1215.63 155.621 1216.13 155.457L1216.61 157.836C1215.71 158.137 1214.74 158.283 1213.69 158.273C1212.09 158.273 1210.96 157.854 1210.32 157.016C1209.68 156.177 1209.36 154.938 1209.36 153.297V145.955ZM1221.04 152.326C1220.8 152.973 1220.67 153.552 1220.67 154.062C1220.67 154.573 1220.86 155.006 1221.23 155.361C1221.62 155.717 1222.32 155.895 1223.34 155.895C1224.36 155.895 1225.25 155.594 1226.02 154.992C1226.78 154.382 1227.17 153.488 1227.17 152.312V151.109L1225.13 151.191C1222.66 151.292 1221.3 151.67 1221.04 152.326ZM1222.74 158.369C1221.06 158.369 1219.77 158 1218.86 157.262C1217.94 156.523 1217.49 155.434 1217.49 153.994C1217.49 151.387 1218.51 149.924 1220.55 149.605C1222.59 149.286 1224.08 149.109 1225.01 149.072L1227.17 148.949V148.334C1227.17 147.268 1226.92 146.516 1226.42 146.078C1225.91 145.641 1225.18 145.422 1224.21 145.422C1223.25 145.422 1222.53 145.59 1222.05 145.928C1221.58 146.265 1221.27 146.753 1221.12 147.391L1218.24 147.076C1218.5 145.654 1219.15 144.62 1220.18 143.973C1221.22 143.316 1222.62 142.988 1224.39 142.988C1227.45 142.988 1229.2 143.717 1229.63 145.176C1230.06 146.634 1230.27 147.801 1230.27 148.676V158H1227.22V156.1C1226.68 156.738 1226.03 157.275 1225.27 157.713C1224.51 158.15 1223.67 158.369 1222.74 158.369ZM1239.41 145.422C1237.14 145.422 1236.01 146.01 1236.01 147.186C1236.01 147.751 1236.17 148.17 1236.5 148.443C1236.84 148.708 1237.49 148.917 1238.45 149.072L1240.41 149.4C1243.07 149.82 1244.57 150.526 1244.89 151.52C1245.23 152.513 1245.4 153.347 1245.4 154.021C1245.4 155.325 1244.89 156.391 1243.88 157.221C1242.87 158.041 1241.34 158.451 1239.29 158.451C1236.33 158.451 1234.5 157.868 1233.78 156.701C1233.07 155.535 1232.68 154.482 1232.63 153.543H1235.68C1235.82 154.473 1236.21 155.106 1236.83 155.443C1237.46 155.781 1238.26 155.949 1239.23 155.949C1241.23 155.949 1242.23 155.325 1242.23 154.076C1242.23 153.593 1242.08 153.183 1241.79 152.846C1241.51 152.508 1240.92 152.267 1240.01 152.121L1238.08 151.779C1236.32 151.515 1235.02 151.05 1234.19 150.385C1233.37 149.719 1232.96 148.726 1232.96 147.404C1232.96 146.074 1233.51 145.007 1234.63 144.205C1235.74 143.394 1237.19 142.988 1238.99 142.988C1241.95 142.988 1243.7 143.544 1244.24 144.656C1244.78 145.768 1245.11 146.611 1245.22 147.186L1242.36 147.582C1242.14 146.853 1241.79 146.311 1241.34 145.955C1240.88 145.6 1240.24 145.422 1239.41 145.422ZM1248.03 138.012H1251.19V149.072L1257.41 143.439H1261.14L1255.88 148.402L1261.61 158H1258.11L1253.58 150.221L1251.19 152.34V158H1248.03V138.012Z" fill="#FFFFFD"/>
<rect x="146.5" y="119.5" width="334" height="59" rx="4.5" fill="white" stroke="#BDBDBD"/>
<path d="M167.523 137.723H169.76L176.322 148.035V137.723H178.676V152H176.439L169.857 141.717V152H167.523V137.723ZM188.456 145.779C188.456 143.937 187.616 143.016 185.937 143.016C185.097 143.016 184.456 143.266 184.013 143.768C183.577 144.269 183.326 144.939 183.261 145.779H188.456ZM185.995 152.322C184.342 152.322 183.085 151.847 182.226 150.896C181.366 149.939 180.937 148.589 180.937 146.844C180.937 145.099 181.399 143.735 182.323 142.752C183.254 141.769 184.488 141.277 186.025 141.277C187.561 141.277 188.72 141.733 189.501 142.645C190.289 143.556 190.683 144.793 190.683 146.355V147.361H183.222C183.248 148.305 183.486 149.07 183.935 149.656C184.39 150.242 185.029 150.535 185.849 150.535C186.669 150.535 187.258 150.395 187.616 150.115C187.981 149.835 188.222 149.438 188.339 148.924H190.536C190.139 151.189 188.626 152.322 185.995 152.322ZM191.538 141.6H194.018L195.786 149.197L197.983 141.678H200.063L202.182 149.197L203.94 141.6H206.323L203.286 152H201.02L198.92 144.441L196.801 152H194.565L191.538 141.6ZM216.509 141.277C217.843 141.277 218.856 141.6 219.546 142.244C220.242 142.882 220.665 143.742 220.815 144.822L218.55 145.164C218.445 144.565 218.244 144.077 217.944 143.699C217.651 143.315 217.205 143.123 216.606 143.123C216.007 143.123 215.392 143.305 214.761 143.67C214.129 144.035 213.813 145.076 213.813 146.795C213.813 148.514 214.123 149.559 214.741 149.93C215.36 150.294 215.968 150.477 216.567 150.477C217.765 150.477 218.468 149.77 218.677 148.357H220.971C220.841 149.581 220.405 150.548 219.663 151.258C218.921 151.967 217.785 152.322 216.255 152.322C214.725 152.322 213.54 151.834 212.7 150.857C211.867 149.881 211.45 148.546 211.45 146.854C211.45 145.161 211.899 143.81 212.798 142.801C213.696 141.785 214.933 141.277 216.509 141.277ZM222.92 137.723H225.205V152H222.92V137.723ZM227.603 137.723H229.966V139.979H227.603V137.723ZM227.642 141.6H229.927V152H227.642V141.6ZM239.502 145.779C239.502 143.937 238.662 143.016 236.983 143.016C236.143 143.016 235.502 143.266 235.059 143.768C234.623 144.269 234.372 144.939 234.307 145.779H239.502ZM237.041 152.322C235.388 152.322 234.131 151.847 233.272 150.896C232.412 149.939 231.983 148.589 231.983 146.844C231.983 145.099 232.445 143.735 233.37 142.752C234.301 141.769 235.534 141.277 237.071 141.277C238.607 141.277 239.766 141.733 240.547 142.645C241.335 143.556 241.729 144.793 241.729 146.355V147.361H234.268C234.294 148.305 234.532 149.07 234.981 149.656C235.437 150.242 236.075 150.535 236.895 150.535C237.715 150.535 238.304 150.395 238.662 150.115C239.027 149.835 239.268 149.438 239.385 148.924H241.582C241.185 151.189 239.672 152.322 237.041 152.322ZM249.371 141.277C251.688 141.277 252.847 142.557 252.847 145.115V152H250.562V145.477C250.562 144.624 250.409 144.031 250.103 143.699C249.804 143.367 249.322 143.201 248.658 143.201C247.994 143.201 247.388 143.449 246.841 143.943C246.295 144.438 246.018 145.057 246.011 145.799V152H243.726V141.6H245.923V143.123C246.828 141.893 247.977 141.277 249.371 141.277ZM255.753 143.396H254.132V141.6H255.753V138.797H258.028V141.6H260.606V143.396H258.028V148.836C258.028 149.852 258.461 150.359 259.327 150.359C259.809 150.359 260.229 150.301 260.587 150.184L260.929 151.883C260.29 152.098 259.597 152.202 258.848 152.195C257.703 152.195 256.899 151.896 256.436 151.297C255.981 150.698 255.753 149.812 255.753 148.641V143.396ZM269.132 149.48C269.581 150.145 270.284 150.477 271.241 150.477C272.205 150.477 272.908 150.145 273.351 149.48C273.8 148.816 274.025 147.918 274.025 146.785C274.025 145.646 273.8 144.751 273.351 144.1C272.908 143.449 272.211 143.123 271.261 143.123C270.31 143.123 269.607 143.452 269.152 144.109C268.696 144.767 268.468 145.659 268.468 146.785C268.468 147.911 268.689 148.81 269.132 149.48ZM271.212 152.322C269.611 152.322 268.357 151.837 267.452 150.867C266.554 149.891 266.105 148.543 266.105 146.824C266.105 145.105 266.57 143.751 267.501 142.762C268.432 141.772 269.692 141.277 271.28 141.277C272.869 141.277 274.116 141.769 275.021 142.752C275.932 143.735 276.388 145.076 276.388 146.775C276.388 148.481 275.926 149.832 275.001 150.828C274.083 151.824 272.82 152.322 271.212 152.322ZM284.059 141.277C286.377 141.277 287.536 142.557 287.536 145.115V152H285.25V145.477C285.25 144.624 285.097 144.031 284.791 143.699C284.492 143.367 284.01 143.201 283.346 143.201C282.682 143.201 282.077 143.449 281.53 143.943C280.983 144.438 280.706 145.057 280.7 145.799V152H278.414V141.6H280.612V143.123C281.517 141.893 282.666 141.277 284.059 141.277ZM292.072 146.98C292.072 149.298 292.974 150.457 294.777 150.457C296.02 150.457 296.769 150.011 297.023 149.119C297.283 148.227 297.414 147.443 297.414 146.766C297.414 145.522 297.179 144.611 296.711 144.031C296.242 143.452 295.617 143.162 294.836 143.162C294.048 143.162 293.39 143.429 292.863 143.963C292.336 144.497 292.072 145.337 292.072 146.482V146.98ZM292.033 152H289.816V137.723H292.101V142.957C292.941 141.837 294.061 141.277 295.461 141.277C296.86 141.277 297.931 141.766 298.673 142.742C299.422 143.719 299.796 145.05 299.796 146.736C299.796 148.423 299.386 149.777 298.566 150.799C297.752 151.814 296.668 152.322 295.314 152.322C293.96 152.322 292.866 151.801 292.033 150.76V152ZM304.509 149.48C304.958 150.145 305.661 150.477 306.618 150.477C307.582 150.477 308.285 150.145 308.727 149.48C309.177 148.816 309.401 147.918 309.401 146.785C309.401 145.646 309.177 144.751 308.727 144.1C308.285 143.449 307.588 143.123 306.637 143.123C305.687 143.123 304.984 143.452 304.528 144.109C304.072 144.767 303.845 145.659 303.845 146.785C303.845 147.911 304.066 148.81 304.509 149.48ZM306.589 152.322C304.987 152.322 303.734 151.837 302.829 150.867C301.93 149.891 301.481 148.543 301.481 146.824C301.481 145.105 301.947 143.751 302.878 142.762C303.809 141.772 305.068 141.277 306.657 141.277C308.246 141.277 309.492 141.769 310.397 142.752C311.309 143.735 311.764 145.076 311.764 146.775C311.764 148.481 311.302 149.832 310.378 150.828C309.46 151.824 308.197 152.322 306.589 152.322ZM315.695 147.947C315.52 148.41 315.432 148.823 315.432 149.188C315.432 149.552 315.565 149.861 315.832 150.115C316.105 150.369 316.607 150.496 317.336 150.496C318.065 150.496 318.703 150.281 319.25 149.852C319.797 149.415 320.07 148.777 320.07 147.938V147.078L318.615 147.137C316.851 147.208 315.878 147.479 315.695 147.947ZM316.906 152.264C315.708 152.264 314.784 152 314.133 151.473C313.482 150.945 313.156 150.167 313.156 149.139C313.156 147.277 313.885 146.232 315.344 146.004C316.802 145.776 317.863 145.649 318.527 145.623L320.07 145.535V145.096C320.07 144.334 319.891 143.797 319.533 143.484C319.175 143.172 318.651 143.016 317.961 143.016C317.271 143.016 316.757 143.136 316.418 143.377C316.079 143.618 315.858 143.966 315.754 144.422L313.693 144.197C313.882 143.182 314.344 142.443 315.08 141.98C315.822 141.512 316.825 141.277 318.088 141.277C320.275 141.277 321.522 141.798 321.828 142.84C322.134 143.882 322.287 144.715 322.287 145.34V152H320.109V150.643C319.725 151.098 319.26 151.482 318.713 151.795C318.173 152.107 317.57 152.264 316.906 152.264ZM326.853 145.896V152H324.568V141.6H326.784V143.143C327.533 142.01 328.506 141.443 329.704 141.443C330.16 141.443 330.502 141.469 330.73 141.521L330.466 143.602C330.219 143.536 329.909 143.504 329.538 143.504C328.764 143.504 328.122 143.725 327.614 144.168C327.107 144.611 326.853 145.187 326.853 145.896ZM338.938 146.58C338.938 145.239 338.645 144.308 338.059 143.787C337.577 143.357 336.975 143.143 336.252 143.143C335.002 143.143 334.25 143.585 333.996 144.471C333.743 145.356 333.616 146.134 333.616 146.805C333.616 148.081 333.85 149.008 334.319 149.588C334.794 150.167 335.393 150.457 336.116 150.457C336.832 150.457 337.437 150.252 337.932 149.842C338.603 149.295 338.938 148.387 338.938 147.117V146.58ZM338.957 150.564C338.118 151.736 336.988 152.322 335.569 152.322C334.149 152.322 333.072 151.821 332.336 150.818C331.601 149.816 331.233 148.475 331.233 146.795C331.233 145.122 331.643 143.784 332.463 142.781C333.284 141.779 334.361 141.277 335.696 141.277C337.03 141.277 338.105 141.772 338.918 142.762V137.723H341.194V152H338.957V150.564ZM343.562 137.723H345.925V139.979H343.562V137.723ZM343.601 141.6H345.886V152H343.601V141.6ZM353.929 141.277C356.246 141.277 357.405 142.557 357.405 145.115V152H355.12V145.477C355.12 144.624 354.967 144.031 354.661 143.699C354.361 143.367 353.88 143.201 353.216 143.201C352.552 143.201 351.946 143.449 351.399 143.943C350.852 144.438 350.576 145.057 350.569 145.799V152H348.284V141.6H350.481V143.123C351.386 141.893 352.535 141.277 353.929 141.277ZM367.049 146.424C367.049 144.236 366.154 143.143 364.363 143.143C363.12 143.143 362.368 143.556 362.107 144.383C361.854 145.21 361.727 145.929 361.727 146.541C361.727 147.68 361.964 148.53 362.439 149.09C362.921 149.643 363.549 149.92 364.324 149.92C365.099 149.92 365.747 149.666 366.268 149.158C366.788 148.65 367.049 147.843 367.049 146.736V146.424ZM367.088 141.6H369.305V150.438C369.305 152.319 368.94 153.732 368.211 154.676C367.488 155.626 366.307 156.102 364.666 156.102C363.032 156.102 361.84 155.838 361.092 155.311C360.343 154.783 359.9 153.947 359.764 152.801H362.049C362.166 153.387 362.407 153.784 362.771 153.992C363.143 154.201 363.654 154.305 364.305 154.305C364.956 154.305 365.447 154.217 365.779 154.041C366.118 153.865 366.411 153.566 366.658 153.143C366.906 152.719 367.029 151.938 367.029 150.799V150.096C366.268 151.189 365.167 151.736 363.729 151.736C362.283 151.736 361.189 151.261 360.447 150.311C359.712 149.354 359.344 148.09 359.344 146.521C359.344 144.952 359.757 143.686 360.584 142.723C361.411 141.759 362.495 141.277 363.836 141.277C365.177 141.277 366.261 141.805 367.088 142.859V141.6Z" fill="#252525"/>
<rect x="514" y="266" width="243" height="15" rx="4" fill="#E6E6E6"/>
<g filter="url(#filter7_d)">
<path d="M501.5 124C501.5 121.515 503.515 119.5 506 119.5H802C804.485 119.5 806.5 121.515 806.5 124V178.5H501.5V124Z" fill="white" stroke="#BDBDBD"/>
<path d="M781.5 144L786.263 152.25H776.737L781.5 144Z" fill="#505050"/>
<rect x="501.5" y="178.5" width="305" height="59" fill="white" stroke="#BDBDBD"/>
<rect x="501.5" y="237.5" width="305" height="59" fill="white" stroke="#BDBDBD"/>
<rect x="501.5" y="296.5" width="305" height="59" fill="white" stroke="#BDBDBD"/>
<rect x="501.5" y="355.5" width="305" height="59" fill="white" stroke="#BDBDBD"/>
<path d="M501.5 414.5H806.5V469C806.5 471.485 804.485 473.5 802 473.5H506C503.515 473.5 501.5 471.485 501.5 469V414.5Z" fill="white" stroke="#BDBDBD"/>
<rect x="521" y="318" width="181" height="15" rx="4" fill="#E6E6E6"/>
<rect x="521" y="260" width="181" height="15" rx="4" fill="#E6E6E6"/>
<rect x="521" y="377" width="212" height="15" rx="4" fill="#E6E6E6"/>
<rect x="521" y="436" width="140" height="15" rx="4" fill="#E6E6E6"/>
<path d="M529.916 206.336L527.797 200.457L525.697 206.336H529.916ZM526.664 197.723H529.057L534.496 212H531.918L530.58 208.357H525.043L523.725 212H521.225L526.664 197.723ZM536.689 210.369C535.549 209.035 534.98 207.205 534.98 204.881C534.98 202.557 535.572 200.724 536.757 199.383C537.948 198.035 539.524 197.361 541.484 197.361C543.997 197.361 545.54 197.98 546.113 199.217C546.692 200.447 547.05 201.421 547.187 202.137L544.804 202.479C544.583 201.456 544.221 200.695 543.72 200.193C543.219 199.692 542.473 199.441 541.484 199.441C540.221 199.441 539.241 199.926 538.544 200.896C537.854 201.86 537.509 203.182 537.509 204.861C537.509 206.541 537.861 207.866 538.564 208.836C539.273 209.799 540.247 210.281 541.484 210.281C543.033 210.281 543.967 209.884 544.286 209.09C544.605 208.296 544.797 207.658 544.863 207.176H547.421C547.258 208.732 546.669 209.985 545.654 210.936C544.644 211.886 543.222 212.361 541.386 212.361C539.394 212.361 537.828 211.697 536.689 210.369ZM549.506 197.723H552.446L556.498 209.08L560.678 197.723H563.52V212H561.303V201.619L557.387 212H555.463L551.684 201.639V212H549.506V197.723ZM566.357 197.723H575.849V199.803H568.769V203.602H575.449V205.701H568.769V209.92H576.23L575.957 212H566.357V197.723ZM589.775 206.336L587.656 200.457L585.557 206.336H589.775ZM586.523 197.723H588.916L594.355 212H591.777L590.439 208.357H584.902L583.584 212H581.084L586.523 197.723ZM600.113 201.277C601.447 201.277 602.46 201.6 603.15 202.244C603.846 202.882 604.269 203.742 604.419 204.822L602.154 205.164C602.049 204.565 601.848 204.077 601.548 203.699C601.255 203.315 600.809 203.123 600.21 203.123C599.611 203.123 598.996 203.305 598.364 203.67C597.733 204.035 597.417 205.076 597.417 206.795C597.417 208.514 597.726 209.559 598.345 209.93C598.963 210.294 599.572 210.477 600.171 210.477C601.369 210.477 602.072 209.77 602.28 208.357H604.575C604.445 209.581 604.009 210.548 603.267 211.258C602.525 211.967 601.389 212.322 599.859 212.322C598.329 212.322 597.144 211.834 596.304 210.857C595.471 209.881 595.054 208.546 595.054 206.854C595.054 205.161 595.503 203.81 596.402 202.801C597.3 201.785 598.537 201.277 600.113 201.277ZM611.006 201.277C612.341 201.277 613.353 201.6 614.043 202.244C614.74 202.882 615.163 203.742 615.313 204.822L613.047 205.164C612.943 204.565 612.741 204.077 612.442 203.699C612.149 203.315 611.703 203.123 611.104 203.123C610.505 203.123 609.89 203.305 609.258 203.67C608.627 204.035 608.311 205.076 608.311 206.795C608.311 208.514 608.62 209.559 609.239 209.93C609.857 210.294 610.466 210.477 611.065 210.477C612.263 210.477 612.966 209.77 613.174 208.357H615.469C615.339 209.581 614.903 210.548 614.161 211.258C613.418 211.967 612.282 212.322 610.752 212.322C609.222 212.322 608.037 211.834 607.198 210.857C606.364 209.881 605.948 208.546 605.948 206.854C605.948 205.161 606.397 203.81 607.295 202.801C608.194 201.785 609.431 201.277 611.006 201.277ZM619.869 209.48C620.318 210.145 621.021 210.477 621.978 210.477C622.942 210.477 623.645 210.145 624.088 209.48C624.537 208.816 624.761 207.918 624.761 206.785C624.761 205.646 624.537 204.751 624.088 204.1C623.645 203.449 622.948 203.123 621.998 203.123C621.047 203.123 620.344 203.452 619.888 204.109C619.433 204.767 619.205 205.659 619.205 206.785C619.205 207.911 619.426 208.81 619.869 209.48ZM621.949 212.322C620.347 212.322 619.094 211.837 618.189 210.867C617.291 209.891 616.841 208.543 616.841 206.824C616.841 205.105 617.307 203.751 618.238 202.762C619.169 201.772 620.429 201.277 622.017 201.277C623.606 201.277 624.852 201.769 625.757 202.752C626.669 203.735 627.125 205.076 627.125 206.775C627.125 208.481 626.662 209.832 625.738 210.828C624.82 211.824 623.557 212.322 621.949 212.322ZM629.073 208.504V201.6H631.348V208.143C631.348 208.995 631.492 209.585 631.778 209.91C632.065 210.236 632.452 210.398 632.94 210.398C633.429 210.398 633.816 210.337 634.102 210.213C634.389 210.083 634.74 209.832 635.157 209.461C635.58 209.083 635.792 208.53 635.792 207.801V201.6H638.067V212H635.85V210.477C634.945 211.707 633.865 212.322 632.608 212.322C631.345 212.322 630.44 212.01 629.893 211.385C629.346 210.753 629.073 209.793 629.073 208.504ZM646.08 201.277C648.398 201.277 649.557 202.557 649.557 205.115V212H647.271V205.477C647.271 204.624 647.118 204.031 646.812 203.699C646.513 203.367 646.031 203.201 645.367 203.201C644.703 203.201 644.098 203.449 643.551 203.943C643.004 204.438 642.727 205.057 642.721 205.799V212H640.436V201.6H642.633V203.123C643.538 201.893 644.687 201.277 646.08 201.277ZM652.462 203.396H650.841V201.6H652.462V198.797H654.738V201.6H657.316V203.396H654.738V208.836C654.738 209.852 655.17 210.359 656.036 210.359C656.518 210.359 656.938 210.301 657.296 210.184L657.638 211.883C657 212.098 656.307 212.202 655.558 212.195C654.412 212.195 653.608 211.896 653.146 211.297C652.69 210.698 652.462 209.812 652.462 208.641V203.396ZM660.807 207.947C660.631 208.41 660.543 208.823 660.543 209.188C660.543 209.552 660.677 209.861 660.944 210.115C661.217 210.369 661.718 210.496 662.448 210.496C663.177 210.496 663.815 210.281 664.362 209.852C664.909 209.415 665.182 208.777 665.182 207.938V207.078L663.727 207.137C661.963 207.208 660.989 207.479 660.807 207.947ZM662.018 212.264C660.82 212.264 659.896 212 659.245 211.473C658.593 210.945 658.268 210.167 658.268 209.139C658.268 207.277 658.997 206.232 660.455 206.004C661.914 205.776 662.975 205.649 663.639 205.623L665.182 205.535V205.096C665.182 204.334 665.003 203.797 664.645 203.484C664.287 203.172 663.763 203.016 663.073 203.016C662.383 203.016 661.868 203.136 661.53 203.377C661.191 203.618 660.97 203.966 660.866 204.422L658.805 204.197C658.994 203.182 659.456 202.443 660.192 201.98C660.934 201.512 661.937 201.277 663.2 201.277C665.387 201.277 666.634 201.798 666.94 202.84C667.246 203.882 667.399 204.715 667.399 205.34V212H665.221V210.643C664.837 211.098 664.371 211.482 663.825 211.795C663.284 212.107 662.682 212.264 662.018 212.264ZM675.324 201.277C677.642 201.277 678.8 202.557 678.8 205.115V212H676.515V205.477C676.515 204.624 676.362 204.031 676.056 203.699C675.757 203.367 675.275 203.201 674.611 203.201C673.947 203.201 673.341 203.449 672.795 203.943C672.248 204.438 671.971 205.057 671.964 205.799V212H669.679V201.6H671.877V203.123C672.782 201.893 673.931 201.277 675.324 201.277ZM681.706 203.396H680.085V201.6H681.706V198.797H683.981V201.6H686.559V203.396H683.981V208.836C683.981 209.852 684.414 210.359 685.28 210.359C685.762 210.359 686.182 210.301 686.54 210.184L686.882 211.883C686.244 212.098 685.55 212.202 684.802 212.195C683.656 212.195 682.852 211.896 682.389 211.297C681.934 210.698 681.706 209.812 681.706 208.641V203.396ZM692.395 203.016C690.773 203.016 689.963 203.436 689.963 204.275C689.963 204.679 690.08 204.979 690.314 205.174C690.555 205.363 691.021 205.512 691.711 205.623L693.107 205.857C695.008 206.157 696.076 206.661 696.311 207.371C696.551 208.081 696.672 208.676 696.672 209.158C696.672 210.089 696.311 210.851 695.588 211.443C694.865 212.029 693.771 212.322 692.307 212.322C690.197 212.322 688.885 211.906 688.371 211.072C687.863 210.239 687.59 209.487 687.551 208.816H689.729C689.833 209.48 690.106 209.933 690.549 210.174C690.998 210.415 691.571 210.535 692.268 210.535C693.693 210.535 694.406 210.089 694.406 209.197C694.406 208.852 694.302 208.559 694.094 208.318C693.892 208.077 693.469 207.905 692.824 207.801L691.447 207.557C690.184 207.368 689.257 207.036 688.664 206.561C688.078 206.085 687.785 205.376 687.785 204.432C687.785 203.481 688.182 202.719 688.977 202.146C689.771 201.567 690.809 201.277 692.092 201.277C694.208 201.277 695.458 201.674 695.842 202.469C696.232 203.263 696.467 203.865 696.545 204.275L694.504 204.559C694.341 204.038 694.097 203.65 693.771 203.396C693.446 203.143 692.987 203.016 692.395 203.016Z" fill="#252525"/>
<path d="M527.641 151.32C529.164 151.32 530.027 151.024 530.229 150.432C530.437 149.839 530.541 149.41 530.541 149.143C530.541 148.583 530.372 148.12 530.033 147.756C529.695 147.385 529.102 147.128 528.256 146.984L526.439 146.643C524.89 146.363 523.754 145.91 523.031 145.285C522.315 144.66 521.957 143.703 521.957 142.414C521.957 141.118 522.452 140.119 523.441 139.416C524.431 138.713 525.785 138.361 527.504 138.361C530.655 138.361 532.432 139.693 532.836 142.355L530.561 142.717C530.372 141.916 530.046 141.324 529.584 140.939C529.128 140.555 528.399 140.363 527.396 140.363C525.847 140.363 524.958 140.62 524.73 141.135C524.509 141.643 524.398 142.023 524.398 142.277C524.398 142.902 524.568 143.371 524.906 143.684C525.251 143.99 525.85 144.227 526.703 144.396L528.676 144.777C530.18 145.057 531.286 145.536 531.996 146.213C532.706 146.883 533.061 147.85 533.061 149.113C533.061 150.376 532.592 151.402 531.654 152.189C530.717 152.971 529.363 153.361 527.592 153.361C525.821 153.361 524.415 152.977 523.373 152.209C522.338 151.441 521.768 150.253 521.664 148.645H524.096C524.2 149.576 524.535 150.256 525.102 150.686C525.674 151.109 526.521 151.32 527.641 151.32ZM542.128 146.779C542.128 144.937 541.288 144.016 539.609 144.016C538.769 144.016 538.127 144.266 537.685 144.768C537.249 145.269 536.998 145.939 536.933 146.779H542.128ZM539.667 153.322C538.014 153.322 536.757 152.847 535.898 151.896C535.038 150.939 534.609 149.589 534.609 147.844C534.609 146.099 535.071 144.735 535.995 143.752C536.926 142.769 538.16 142.277 539.696 142.277C541.233 142.277 542.392 142.733 543.173 143.645C543.961 144.556 544.355 145.793 544.355 147.355V148.361H536.894C536.92 149.305 537.157 150.07 537.607 150.656C538.062 151.242 538.7 151.535 539.521 151.535C540.341 151.535 540.93 151.395 541.288 151.115C541.653 150.835 541.894 150.438 542.011 149.924H544.208C543.811 152.189 542.297 153.322 539.667 153.322ZM546.391 138.723H548.676V153H546.391V138.723ZM558.252 146.779C558.252 144.937 557.412 144.016 555.732 144.016C554.892 144.016 554.251 144.266 553.808 144.768C553.372 145.269 553.121 145.939 553.056 146.779H558.252ZM555.791 153.322C554.137 153.322 552.88 152.847 552.021 151.896C551.162 150.939 550.732 149.589 550.732 147.844C550.732 146.099 551.194 144.735 552.119 143.752C553.05 142.769 554.283 142.277 555.82 142.277C557.356 142.277 558.515 142.733 559.296 143.645C560.084 144.556 560.478 145.793 560.478 147.355V148.361H553.017C553.043 149.305 553.281 150.07 553.73 150.656C554.186 151.242 554.824 151.535 555.644 151.535C556.464 151.535 557.054 151.395 557.412 151.115C557.776 150.835 558.017 150.438 558.134 149.924H560.332C559.935 152.189 558.421 153.322 555.791 153.322ZM567.192 142.277C568.527 142.277 569.539 142.6 570.229 143.244C570.926 143.882 571.349 144.742 571.499 145.822L569.233 146.164C569.129 145.565 568.927 145.077 568.628 144.699C568.335 144.315 567.889 144.123 567.29 144.123C566.691 144.123 566.076 144.305 565.444 144.67C564.813 145.035 564.497 146.076 564.497 147.795C564.497 149.514 564.806 150.559 565.425 150.93C566.043 151.294 566.652 151.477 567.251 151.477C568.449 151.477 569.152 150.77 569.36 149.357H571.655C571.525 150.581 571.089 151.548 570.346 152.258C569.604 152.967 568.468 153.322 566.938 153.322C565.408 153.322 564.223 152.834 563.384 151.857C562.55 150.881 562.134 149.546 562.134 147.854C562.134 146.161 562.583 144.81 563.481 143.801C564.38 142.785 565.617 142.277 567.192 142.277ZM574.189 144.396H572.568V142.6H574.189V139.797H576.465V142.6H579.043V144.396H576.465V149.836C576.465 150.852 576.898 151.359 577.764 151.359C578.245 151.359 578.665 151.301 579.023 151.184L579.365 152.883C578.727 153.098 578.034 153.202 577.285 153.195C576.139 153.195 575.335 152.896 574.873 152.297C574.417 151.698 574.189 150.812 574.189 149.641V144.396ZM586.787 148.947C586.612 149.41 586.524 149.823 586.524 150.188C586.524 150.552 586.657 150.861 586.924 151.115C587.198 151.369 587.699 151.496 588.428 151.496C589.157 151.496 589.795 151.281 590.342 150.852C590.889 150.415 591.162 149.777 591.162 148.938V148.078L589.707 148.137C587.943 148.208 586.97 148.479 586.787 148.947ZM587.998 153.264C586.801 153.264 585.876 153 585.225 152.473C584.574 151.945 584.248 151.167 584.248 150.139C584.248 148.277 584.978 147.232 586.436 147.004C587.894 146.776 588.955 146.649 589.62 146.623L591.162 146.535V146.096C591.162 145.334 590.983 144.797 590.625 144.484C590.267 144.172 589.743 144.016 589.053 144.016C588.363 144.016 587.849 144.136 587.51 144.377C587.172 144.618 586.95 144.966 586.846 145.422L584.786 145.197C584.974 144.182 585.437 143.443 586.172 142.98C586.914 142.512 587.917 142.277 589.18 142.277C591.368 142.277 592.614 142.798 592.92 143.84C593.226 144.882 593.379 145.715 593.379 146.34V153H591.202V151.643C590.817 152.098 590.352 152.482 589.805 152.795C589.265 153.107 588.662 153.264 587.998 153.264ZM604.63 142.277C605.964 142.277 606.977 142.6 607.667 143.244C608.363 143.882 608.787 144.742 608.936 145.822L606.671 146.164C606.567 145.565 606.365 145.077 606.065 144.699C605.772 144.315 605.326 144.123 604.727 144.123C604.128 144.123 603.513 144.305 602.882 144.67C602.25 145.035 601.934 146.076 601.934 147.795C601.934 149.514 602.244 150.559 602.862 150.93C603.481 151.294 604.089 151.477 604.688 151.477C605.886 151.477 606.589 150.77 606.798 149.357H609.093C608.962 150.581 608.526 151.548 607.784 152.258C607.042 152.967 605.906 153.322 604.376 153.322C602.846 153.322 601.661 152.834 600.821 151.857C599.988 150.881 599.571 149.546 599.571 147.854C599.571 146.161 600.02 144.81 600.919 143.801C601.817 142.785 603.054 142.277 604.63 142.277ZM611.041 138.723H613.326V153H611.041V138.723ZM615.724 138.723H618.087V140.979H615.724V138.723ZM615.763 142.6H618.048V153H615.763V142.6ZM627.623 146.779C627.623 144.937 626.784 144.016 625.104 144.016C624.264 144.016 623.623 144.266 623.18 144.768C622.744 145.269 622.493 145.939 622.428 146.779H627.623ZM625.162 153.322C623.509 153.322 622.252 152.847 621.393 151.896C620.534 150.939 620.104 149.589 620.104 147.844C620.104 146.099 620.566 144.735 621.491 143.752C622.422 142.769 623.655 142.277 625.192 142.277C626.728 142.277 627.887 142.733 628.668 143.645C629.456 144.556 629.85 145.793 629.85 147.355V148.361H622.389C622.415 149.305 622.653 150.07 623.102 150.656C623.558 151.242 624.196 151.535 625.016 151.535C625.836 151.535 626.426 151.395 626.784 151.115C627.148 150.835 627.389 150.438 627.506 149.924H629.704C629.306 152.189 627.793 153.322 625.162 153.322ZM637.492 142.277C639.81 142.277 640.968 143.557 640.968 146.115V153H638.683V146.477C638.683 145.624 638.53 145.031 638.224 144.699C637.925 144.367 637.443 144.201 636.779 144.201C636.115 144.201 635.509 144.449 634.963 144.943C634.416 145.438 634.139 146.057 634.132 146.799V153H631.847V142.6H634.045V144.123C634.949 142.893 636.099 142.277 637.492 142.277ZM643.874 144.396H642.253V142.6H643.874V139.797H646.149V142.6H648.727V144.396H646.149V149.836C646.149 150.852 646.582 151.359 647.448 151.359C647.93 151.359 648.35 151.301 648.708 151.184L649.05 152.883C648.412 153.098 647.718 153.202 646.97 153.195C645.824 153.195 645.02 152.896 644.557 152.297C644.102 151.698 643.874 150.812 643.874 149.641V144.396Z" fill="#BDBDBD"/>
</g>
<rect x="827.5" y="119.5" width="249" height="59" rx="4.5" fill="white" stroke="#BDBDBD"/>
<path d="M855.037 139.182V153H852.723V141.76L849.764 143.537L848.758 141.857L853.035 139.182H855.037ZM866.546 144.406C866.702 144.003 866.78 143.501 866.78 142.902C866.78 142.303 866.582 141.805 866.185 141.408C865.794 141.005 865.221 140.803 864.466 140.803C863.711 140.803 863.128 140.982 862.718 141.34C862.314 141.698 862.008 142.29 861.8 143.117L859.613 142.824C859.886 141.607 860.397 140.633 861.146 139.904C861.901 139.169 863.037 138.801 864.554 138.801C866.071 138.801 867.217 139.178 867.991 139.934C868.766 140.682 869.154 141.649 869.154 142.834C869.154 144.019 868.825 145.113 868.167 146.115C867.51 147.118 866.598 148.094 865.433 149.045C864.274 149.989 863.502 150.633 863.118 150.979H869.339L869.056 153H859.759V151.223C860.306 150.754 860.866 150.279 861.439 149.797C862.012 149.309 862.594 148.804 863.187 148.283C863.779 147.762 864.297 147.287 864.739 146.857C865.189 146.421 865.563 146.005 865.863 145.607C866.162 145.204 866.39 144.803 866.546 144.406ZM883.441 147.336L881.322 141.457L879.222 147.336H883.441ZM880.189 138.723H882.582L888.021 153H885.443L884.105 149.357H878.568L877.25 153H874.75L880.189 138.723ZM889.237 149.504V142.6H891.513V149.143C891.513 149.995 891.656 150.585 891.942 150.91C892.229 151.236 892.616 151.398 893.104 151.398C893.593 151.398 893.98 151.337 894.266 151.213C894.553 151.083 894.904 150.832 895.321 150.461C895.744 150.083 895.956 149.53 895.956 148.801V142.6H898.231V153H896.014V151.477C895.11 152.707 894.029 153.322 892.772 153.322C891.509 153.322 890.604 153.01 890.057 152.385C889.511 151.753 889.237 150.793 889.237 149.504ZM907.963 147.424C907.963 145.236 907.068 144.143 905.277 144.143C904.034 144.143 903.282 144.556 903.021 145.383C902.768 146.21 902.641 146.929 902.641 147.541C902.641 148.68 902.878 149.53 903.354 150.09C903.835 150.643 904.464 150.92 905.238 150.92C906.013 150.92 906.661 150.666 907.182 150.158C907.702 149.65 907.963 148.843 907.963 147.736V147.424ZM908.002 142.6H910.219V151.438C910.219 153.319 909.854 154.732 909.125 155.676C908.402 156.626 907.221 157.102 905.58 157.102C903.946 157.102 902.755 156.838 902.006 156.311C901.257 155.783 900.814 154.947 900.678 153.801H902.963C903.08 154.387 903.321 154.784 903.686 154.992C904.057 155.201 904.568 155.305 905.219 155.305C905.87 155.305 906.361 155.217 906.693 155.041C907.032 154.865 907.325 154.566 907.572 154.143C907.82 153.719 907.943 152.938 907.943 151.799V151.096C907.182 152.189 906.081 152.736 904.643 152.736C903.197 152.736 902.104 152.261 901.361 151.311C900.626 150.354 900.258 149.09 900.258 147.521C900.258 145.952 900.671 144.686 901.498 143.723C902.325 142.759 903.409 142.277 904.75 142.277C906.091 142.277 907.175 142.805 908.002 143.859V142.6ZM923.471 144.406C923.627 144.003 923.705 143.501 923.705 142.902C923.705 142.303 923.507 141.805 923.11 141.408C922.719 141.005 922.146 140.803 921.391 140.803C920.636 140.803 920.053 140.982 919.643 141.34C919.239 141.698 918.933 142.29 918.725 143.117L916.537 142.824C916.811 141.607 917.322 140.633 918.071 139.904C918.826 139.169 919.962 138.801 921.479 138.801C922.996 138.801 924.142 139.178 924.916 139.934C925.691 140.682 926.079 141.649 926.079 142.834C926.079 144.019 925.75 145.113 925.092 146.115C924.435 147.118 923.523 148.094 922.358 149.045C921.199 149.989 920.427 150.633 920.043 150.979H926.264L925.981 153H916.684V151.223C917.231 150.754 917.791 150.279 918.364 149.797C918.937 149.309 919.519 148.804 920.112 148.283C920.704 147.762 921.222 147.287 921.664 146.857C922.114 146.421 922.488 146.005 922.787 145.607C923.087 145.204 923.315 144.803 923.471 144.406ZM933.095 151.359C934.547 151.359 935.377 150.686 935.586 149.338C935.794 147.99 935.898 146.906 935.898 146.086C935.898 145.266 935.846 144.53 935.742 143.879C935.644 143.228 935.485 142.671 935.263 142.209C935.048 141.747 934.762 141.398 934.404 141.164C934.052 140.923 933.499 140.803 932.744 140.803C931.995 140.803 931.406 141.249 930.976 142.141C930.553 143.026 930.341 144.318 930.341 146.018C930.341 147.71 930.543 149.025 930.947 149.963C931.351 150.894 932.067 151.359 933.095 151.359ZM936.904 151.604C935.992 152.775 934.72 153.361 933.086 153.361C931.451 153.361 930.188 152.775 929.296 151.604C928.405 150.425 927.959 148.605 927.959 146.145C927.959 143.684 928.411 141.844 929.316 140.627C930.227 139.41 931.497 138.801 933.125 138.801C934.759 138.801 936.025 139.39 936.923 140.568C937.828 141.747 938.281 143.586 938.281 146.086C938.281 148.586 937.822 150.425 936.904 151.604ZM946.743 144.406C946.899 144.003 946.977 143.501 946.977 142.902C946.977 142.303 946.779 141.805 946.382 141.408C945.991 141.005 945.418 140.803 944.663 140.803C943.908 140.803 943.325 140.982 942.915 141.34C942.511 141.698 942.205 142.29 941.997 143.117L939.809 142.824C940.083 141.607 940.594 140.633 941.343 139.904C942.098 139.169 943.234 138.801 944.751 138.801C946.268 138.801 947.414 139.178 948.188 139.934C948.963 140.682 949.35 141.649 949.35 142.834C949.35 144.019 949.022 145.113 948.364 146.115C947.707 147.118 946.795 148.094 945.63 149.045C944.471 149.989 943.699 150.633 943.315 150.979H949.536L949.253 153H939.956V151.223C940.503 150.754 941.063 150.279 941.636 149.797C942.208 149.309 942.791 148.804 943.384 148.283C943.976 147.762 944.494 147.287 944.936 146.857C945.386 146.421 945.76 146.005 946.059 145.607C946.359 145.204 946.587 144.803 946.743 144.406ZM956.367 151.359C957.819 151.359 958.649 150.686 958.857 149.338C959.066 147.99 959.17 146.906 959.17 146.086C959.17 145.266 959.118 144.53 959.014 143.879C958.916 143.228 958.757 142.671 958.535 142.209C958.32 141.747 958.034 141.398 957.676 141.164C957.324 140.923 956.771 140.803 956.016 140.803C955.267 140.803 954.678 141.249 954.248 142.141C953.825 143.026 953.613 144.318 953.613 146.018C953.613 147.71 953.815 149.025 954.219 149.963C954.622 150.894 955.339 151.359 956.367 151.359ZM960.176 151.604C959.264 152.775 957.992 153.361 956.357 153.361C954.723 153.361 953.46 152.775 952.568 151.604C951.676 150.425 951.23 148.605 951.23 146.145C951.23 143.684 951.683 141.844 952.588 140.627C953.499 139.41 954.769 138.801 956.396 138.801C958.031 138.801 959.297 139.39 960.195 140.568C961.1 141.747 961.553 143.586 961.553 146.086C961.553 148.586 961.094 150.425 960.176 151.604Z" fill="#252525"/>
<path d="M1019 120H1071C1073.76 120 1076 122.239 1076 125V173C1076 175.761 1073.76 178 1071 178H1019V120Z" fill="#FAFAFA"/>
<path fill-rule="evenodd" clip-rule="evenodd" d="M1041 157H1055V146H1041V157ZM1055 141H1054V139H1052V141H1044V139H1042V141H1041C1039.89 141 1039.01 141.9 1039.01 143L1039 157C1039 158.1 1039.89 159 1041 159H1055C1056.1 159 1057 158.1 1057 157V143C1057 141.9 1056.1 141 1055 141ZM1051 150H1053V148H1051V150ZM1047 150H1049V148H1047V150ZM1043 150H1045V148H1043V150Z" fill="#252525"/>
<line x1="1019.5" y1="119" x2="1019.5" y2="179" stroke="#BDBDBD"/>
<g filter="url(#filter8_d)">
<rect x="130" y="516" width="196" height="71" rx="4" fill="white"/>
<rect x="130.5" y="516.5" width="195" height="70" rx="3.5" stroke="#E6E6E6"/>
</g>
<path d="M162.482 551.07L159.516 542.84L156.576 551.07H162.482ZM157.93 539.012H161.279L168.895 559H165.285L163.412 553.9H155.66L153.814 559H150.314L157.93 539.012ZM180.659 551.412C180.659 549.535 180.249 548.231 179.429 547.502C178.755 546.9 177.911 546.6 176.9 546.6C175.15 546.6 174.097 547.219 173.741 548.459C173.386 549.699 173.208 550.788 173.208 551.727C173.208 553.513 173.536 554.812 174.193 555.623C174.858 556.434 175.697 556.84 176.708 556.84C177.711 556.84 178.559 556.553 179.251 555.979C180.19 555.213 180.659 553.941 180.659 552.164V551.412ZM180.687 556.99C179.511 558.631 177.93 559.451 175.943 559.451C173.956 559.451 172.447 558.749 171.417 557.346C170.387 555.942 169.872 554.064 169.872 551.713C169.872 549.37 170.447 547.497 171.595 546.094C172.743 544.69 174.252 543.988 176.12 543.988C177.989 543.988 179.493 544.681 180.632 546.066V539.012H183.818V559H180.687V556.99ZM195.063 543.988C198.308 543.988 199.93 545.779 199.93 549.361V559H196.745V549.867C196.745 548.673 196.53 547.844 196.102 547.379C195.674 546.914 194.995 546.682 194.065 546.682C193.135 546.682 192.279 547.033 191.495 547.734C190.711 548.436 190.323 549.298 190.333 550.318V559H187.133V539.012H190.333V546.449C191.618 544.809 193.195 543.988 195.063 543.988ZM206.883 555.473C207.512 556.402 208.496 556.867 209.836 556.867C211.185 556.867 212.169 556.402 212.789 555.473C213.418 554.543 213.732 553.285 213.732 551.699C213.732 550.104 213.418 548.851 212.789 547.939C212.169 547.028 211.194 546.572 209.863 546.572C208.532 546.572 207.548 547.033 206.91 547.953C206.272 548.874 205.953 550.122 205.953 551.699C205.953 553.276 206.263 554.534 206.883 555.473ZM209.795 559.451C207.553 559.451 205.798 558.772 204.531 557.414C203.273 556.047 202.644 554.16 202.644 551.754C202.644 549.348 203.296 547.452 204.599 546.066C205.903 544.681 207.667 543.988 209.89 543.988C212.114 543.988 213.86 544.676 215.127 546.053C216.403 547.429 217.041 549.307 217.041 551.686C217.041 554.074 216.394 555.965 215.099 557.359C213.814 558.754 212.046 559.451 209.795 559.451ZM226.482 543.988C228.35 543.988 229.767 544.439 230.734 545.342C231.709 546.235 232.301 547.438 232.511 548.951L229.339 549.43C229.193 548.591 228.911 547.908 228.491 547.379C228.081 546.841 227.457 546.572 226.618 546.572C225.78 546.572 224.918 546.827 224.034 547.338C223.15 547.848 222.708 549.307 222.708 551.713C222.708 554.119 223.141 555.582 224.007 556.102C224.873 556.612 225.725 556.867 226.564 556.867C228.241 556.867 229.225 555.878 229.517 553.9H232.73C232.547 555.614 231.937 556.967 230.898 557.961C229.859 558.954 228.268 559.451 226.126 559.451C223.984 559.451 222.325 558.768 221.15 557.4C219.983 556.033 219.4 554.165 219.4 551.795C219.4 549.425 220.028 547.534 221.286 546.121C222.544 544.699 224.276 543.988 226.482 543.988ZM242.232 546.955H239.963V544.439H242.232V540.516H245.418V544.439H249.027V546.955H245.418V554.57C245.418 555.992 246.024 556.703 247.236 556.703C247.91 556.703 248.498 556.621 249 556.457L249.478 558.836C248.585 559.137 247.614 559.283 246.566 559.273C244.962 559.273 243.836 558.854 243.189 558.016C242.551 557.177 242.232 555.938 242.232 554.297V546.955ZM253.915 553.326C253.669 553.973 253.546 554.552 253.546 555.062C253.546 555.573 253.733 556.006 254.106 556.361C254.489 556.717 255.191 556.895 256.212 556.895C257.233 556.895 258.126 556.594 258.892 555.992C259.657 555.382 260.04 554.488 260.04 553.312V552.109L258.003 552.191C255.533 552.292 254.17 552.67 253.915 553.326ZM255.61 559.369C253.933 559.369 252.639 559 251.728 558.262C250.816 557.523 250.36 556.434 250.36 554.994C250.36 552.387 251.381 550.924 253.423 550.605C255.464 550.286 256.95 550.109 257.88 550.072L260.04 549.949V549.334C260.04 548.268 259.789 547.516 259.288 547.078C258.787 546.641 258.053 546.422 257.087 546.422C256.121 546.422 255.401 546.59 254.927 546.928C254.453 547.265 254.143 547.753 253.997 548.391L251.112 548.076C251.377 546.654 252.024 545.62 253.054 544.973C254.093 544.316 255.496 543.988 257.265 543.988C260.327 543.988 262.073 544.717 262.501 546.176C262.929 547.634 263.144 548.801 263.144 549.676V559H260.095V557.1C259.557 557.738 258.905 558.275 258.14 558.713C257.383 559.15 256.54 559.369 255.61 559.369ZM272.283 546.422C270.014 546.422 268.879 547.01 268.879 548.186C268.879 548.751 269.043 549.17 269.371 549.443C269.709 549.708 270.36 549.917 271.326 550.072L273.281 550.4C275.943 550.82 277.438 551.526 277.766 552.52C278.103 553.513 278.272 554.347 278.272 555.021C278.272 556.325 277.766 557.391 276.754 558.221C275.742 559.041 274.211 559.451 272.16 559.451C269.207 559.451 267.371 558.868 266.651 557.701C265.94 556.535 265.557 555.482 265.502 554.543H268.551C268.697 555.473 269.08 556.106 269.699 556.443C270.328 556.781 271.13 556.949 272.106 556.949C274.102 556.949 275.1 556.325 275.1 555.076C275.1 554.593 274.954 554.183 274.662 553.846C274.38 553.508 273.787 553.267 272.885 553.121L270.957 552.779C269.189 552.515 267.89 552.05 267.061 551.385C266.24 550.719 265.83 549.726 265.83 548.404C265.83 547.074 266.386 546.007 267.498 545.205C268.61 544.394 270.064 543.988 271.86 543.988C274.822 543.988 276.572 544.544 277.11 545.656C277.656 546.768 277.985 547.611 278.094 548.186L275.237 548.582C275.009 547.853 274.667 547.311 274.211 546.955C273.755 546.6 273.113 546.422 272.283 546.422ZM280.904 539.012H284.062V550.072L290.283 544.439H294.015L288.751 549.402L294.48 559H290.98L286.455 551.221L284.062 553.34V559H280.904V539.012ZM301.555 546.422C299.286 546.422 298.151 547.01 298.151 548.186C298.151 548.751 298.315 549.17 298.643 549.443C298.981 549.708 299.632 549.917 300.598 550.072L302.554 550.4C305.215 550.82 306.71 551.526 307.038 552.52C307.375 553.513 307.544 554.347 307.544 555.021C307.544 556.325 307.038 557.391 306.026 558.221C305.014 559.041 303.483 559.451 301.432 559.451C298.479 559.451 296.643 558.868 295.923 557.701C295.212 556.535 294.829 555.482 294.774 554.543H297.823C297.969 555.473 298.352 556.106 298.971 556.443C299.6 556.781 300.402 556.949 301.378 556.949C303.374 556.949 304.372 556.325 304.372 555.076C304.372 554.593 304.226 554.183 303.934 553.846C303.652 553.508 303.059 553.267 302.157 553.121L300.229 552.779C298.461 552.515 297.162 552.05 296.333 551.385C295.512 550.719 295.102 549.726 295.102 548.404C295.102 547.074 295.658 546.007 296.77 545.205C297.882 544.394 299.336 543.988 301.132 543.988C304.094 543.988 305.844 544.544 306.382 545.656C306.929 546.768 307.257 547.611 307.366 548.186L304.509 548.582C304.281 547.853 303.939 547.311 303.483 546.955C303.027 546.6 302.385 546.422 301.555 546.422Z" fill="#9213E4"/>
<g filter="url(#filter9_d)">
<rect x="50" y="517" width="70" height="70" rx="3.11111" fill="#9213E4"/>
</g>
<path fill-rule="evenodd" clip-rule="evenodd" d="M100 545.333H76.6667V542H100V545.333ZM95 553.667H76.6667V550.333H95V553.667ZM100 562H76.6667V558.667H100V562ZM73.3333 562H70V558.667H73.3333V562ZM73.3333 542V545.333H70V542H73.3333ZM73.3333 553.667H70V550.333H73.3333V553.667Z" fill="white"/>
<defs>
<filter id="filter0_d" x="66.4688" y="42" width="1146" height="678" filterUnits="userSpaceOnUse" color-interpolation-filters="sRGB">
<feFlood flood-opacity="0" result="BackgroundImageFix"/>
<feColorMatrix in="SourceAlpha" type="matrix" values="0 0 0 0 0 0 0 0 0 0 0 0 0 0 0 0 0 0 127 0"/>
<feOffset/>
<feGaussianBlur stdDeviation="50"/>
<feColorMatrix type="matrix" values="0 0 0 0 0.305882 0 0 0 0 0.305882 0 0 0 0 0.305882 0 0 0 0.05 0"/>
<feBlend mode="normal" in2="BackgroundImageFix" result="effect1_dropShadow"/>
<feBlend mode="normal" in="SourceGraphic" in2="effect1_dropShadow" result="shape"/>
</filter>
<filter id="filter1_d" x="88.4688" y="100" width="1102" height="316" filterUnits="userSpaceOnUse" color-interpolation-filters="sRGB">
<feFlood flood-opacity="0" result="BackgroundImageFix"/>
<feColorMatrix in="SourceAlpha" type="matrix" values="0 0 0 0 0 0 0 0 0 0 0 0 0 0 0 0 0 0 127 0"/>
<feOffset dy="4"/>
<feGaussianBlur stdDeviation="50"/>
<feColorMatrix type="matrix" values="0 0 0 0 0 0 0 0 0 0 0 0 0 0 0 0 0 0 0.04 0"/>
<feBlend mode="normal" in2="BackgroundImageFix" result="effect1_dropShadow"/>
<feBlend mode="normal" in="SourceGraphic" in2="effect1_dropShadow" result="shape"/>
</filter>
<filter id="filter2_d" x="88.4688" y="221" width="1102" height="316" filterUnits="userSpaceOnUse" color-interpolation-filters="sRGB">
<feFlood flood-opacity="0" result="BackgroundImageFix"/>
<feColorMatrix in="SourceAlpha" type="matrix" values="0 0 0 0 0 0 0 0 0 0 0 0 0 0 0 0 0 0 127 0"/>
<feOffset dy="4"/>
<feGaussianBlur stdDeviation="50"/>
<feColorMatrix type="matrix" values="0 0 0 0 0 0 0 0 0 0 0 0 0 0 0 0 0 0 0.04 0"/>
<feBlend mode="normal" in2="BackgroundImageFix" result="effect1_dropShadow"/>
<feBlend mode="normal" in="SourceGraphic" in2="effect1_dropShadow" result="shape"/>
</filter>
<filter id="filter3_d" x="88.4688" y="342" width="1102" height="316" filterUnits="userSpaceOnUse" color-interpolation-filters="sRGB">
<feFlood flood-opacity="0" result="BackgroundImageFix"/>
<feColorMatrix in="SourceAlpha" type="matrix" values="0 0 0 0 0 0 0 0 0 0 0 0 0 0 0 0 0 0 127 0"/>
<feOffset dy="4"/>
<feGaussianBlur stdDeviation="50"/>
<feColorMatrix type="matrix" values="0 0 0 0 0 0 0 0 0 0 0 0 0 0 0 0 0 0 0.04 0"/>
<feBlend mode="normal" in2="BackgroundImageFix" result="effect1_dropShadow"/>
<feBlend mode="normal" in="SourceGraphic" in2="effect1_dropShadow" result="shape"/>
</filter>
<filter id="filter4_d" x="88.4688" y="463" width="1102" height="316" filterUnits="userSpaceOnUse" color-interpolation-filters="sRGB">
<feFlood flood-opacity="0" result="BackgroundImageFix"/>
<feColorMatrix in="SourceAlpha" type="matrix" values="0 0 0 0 0 0 0 0 0 0 0 0 0 0 0 0 0 0 127 0"/>
<feOffset dy="4"/>
<feGaussianBlur stdDeviation="50"/>
<feColorMatrix type="matrix" values="0 0 0 0 0 0 0 0 0 0 0 0 0 0 0 0 0 0 0.04 0"/>
<feBlend mode="normal" in2="BackgroundImageFix" result="effect1_dropShadow"/>
<feBlend mode="normal" in="SourceGraphic" in2="effect1_dropShadow" result="shape"/>
</filter>
<filter id="filter5_d" x="16" y="0" width="1271" height="310" filterUnits="userSpaceOnUse" color-interpolation-filters="sRGB">
<feFlood flood-opacity="0" result="BackgroundImageFix"/>
<feColorMatrix in="SourceAlpha" type="matrix" values="0 0 0 0 0 0 0 0 0 0 0 0 0 0 0 0 0 0 127 0"/>
<feOffset dy="4"/>
<feGaussianBlur stdDeviation="50"/>
<feColorMatrix type="matrix" values="0 0 0 0 0 0 0 0 0 0 0 0 0 0 0 0 0 0 0.05 0"/>
<feBlend mode="normal" in2="BackgroundImageFix" result="effect1_dropShadow"/>
<feBlend mode="normal" in="SourceGraphic" in2="effect1_dropShadow" result="shape"/>
</filter>
<filter id="filter6_d" x="1017" y="16" width="362" height="270" filterUnits="userSpaceOnUse" color-interpolation-filters="sRGB">
<feFlood flood-opacity="0" result="BackgroundImageFix"/>
<feColorMatrix in="SourceAlpha" type="matrix" values="0 0 0 0 0 0 0 0 0 0 0 0 0 0 0 0 0 0 127 0"/>
<feOffset/>
<feGaussianBlur stdDeviation="50"/>
<feColorMatrix type="matrix" values="0 0 0 0 0.984314 0 0 0 0 0.129412 0 0 0 0 0.321569 0 0 0 0.15 0"/>
<feBlend mode="normal" in2="BackgroundImageFix" result="effect1_dropShadow"/>
<feBlend mode="normal" in="SourceGraphic" in2="effect1_dropShadow" result="shape"/>
</filter>
<filter id="filter7_d" x="401" y="29" width="506" height="555" filterUnits="userSpaceOnUse" color-interpolation-filters="sRGB">
<feFlood flood-opacity="0" result="BackgroundImageFix"/>
<feColorMatrix in="SourceAlpha" type="matrix" values="0 0 0 0 0 0 0 0 0 0 0 0 0 0 0 0 0 0 127 0"/>
<feOffset dy="10"/>
<feGaussianBlur stdDeviation="50"/>
<feColorMatrix type="matrix" values="0 0 0 0 0 0 0 0 0 0 0 0 0 0 0 0 0 0 0.05 0"/>
<feBlend mode="normal" in2="BackgroundImageFix" result="effect1_dropShadow"/>
<feBlend mode="normal" in="SourceGraphic" in2="effect1_dropShadow" result="shape"/>
</filter>
<filter id="filter8_d" x="80" y="466" width="296" height="171" filterUnits="userSpaceOnUse" color-interpolation-filters="sRGB">
<feFlood flood-opacity="0" result="BackgroundImageFix"/>
<feColorMatrix in="SourceAlpha" type="matrix" values="0 0 0 0 0 0 0 0 0 0 0 0 0 0 0 0 0 0 127 0"/>
<feOffset/>
<feGaussianBlur stdDeviation="25"/>
<feColorMatrix type="matrix" values="0 0 0 0 0 0 0 0 0 0 0 0 0 0 0 0 0 0 0.05 0"/>
<feBlend mode="normal" in2="BackgroundImageFix" result="effect1_dropShadow"/>
<feBlend mode="normal" in="SourceGraphic" in2="effect1_dropShadow" result="shape"/>
</filter>
<filter id="filter9_d" x="0" y="467" width="170" height="170" filterUnits="userSpaceOnUse" color-interpolation-filters="sRGB">
<feFlood flood-opacity="0" result="BackgroundImageFix"/>
<feColorMatrix in="SourceAlpha" type="matrix" values="0 0 0 0 0 0 0 0 0 0 0 0 0 0 0 0 0 0 127 0"/>
<feOffset/>
<feGaussianBlur stdDeviation="25"/>
<feColorMatrix type="matrix" values="0 0 0 0 0.572549 0 0 0 0 0.0745098 0 0 0 0 0.894118 0 0 0 0.1 0"/>
<feBlend mode="normal" in2="BackgroundImageFix" result="effect1_dropShadow"/>
<feBlend mode="normal" in="SourceGraphic" in2="effect1_dropShadow" result="shape"/>
</filter>
<radialGradient id="paint0_angular" cx="0" cy="0" r="1" gradientUnits="userSpaceOnUse" gradientTransform="translate(1087.22 670.222) rotate(-29.624) scale(28.0305)">
<stop stop-color="#848484"/>
<stop offset="1"/>
</radialGradient>
<radialGradient id="paint1_angular" cx="0" cy="0" r="1" gradientUnits="userSpaceOnUse" gradientTransform="translate(185.567 75.5796) rotate(-29.989) scale(6.69975 30.9135)">
<stop offset="0.5" stop-color="#848484"/>
<stop offset="0.5"/>
</radialGradient>
<radialGradient id="paint2_angular" cx="0" cy="0" r="1" gradientUnits="userSpaceOnUse" gradientTransform="translate(185.567 75.5811) rotate(-119.989) scale(6.70233 30.9016)">
<stop offset="0.5" stop-color="#848484"/>
<stop offset="0.5"/>
</radialGradient>
</defs>
</svg>
